<svg class="dribbble_logo" xmlns="http://www.w3.org/2000/svg" viewBox="0 0 131.9 131.82">
  <g id="Layer_2" data-name="Layer 2">
    <g id="Layer_4" data-name="Layer 4"><path class="cls-1" d="M64.38,0h3.09c2.81.28,5.65.41,8.43.85a64.38,64.38,0,0,1,31.47,14c14.08,11.58,22.18,26.48,24.14,44.61a60.85,60.85,0,0,1-4.65,31.47c-10.24,23.24-28,36.94-53.22,40.34a62.26,62.26,0,0,1-44.08-10.47C14,110.31,4.45,95.76,1,77.27c-.46-2.47-.69-5-1-7.49q0-3.86,0-7.73c.08-.46.17-.91.24-1.37.39-2.76.6-5.55,1.19-8.26A64.83,64.83,0,0,1,23.19,15.87,64.23,64.23,0,0,1,57,.74C59.43.41,61.91.24,64.38,0ZM31.93,109.92c.27.25.36.35.46.42q25,17.94,54,7.4c.89-.32,1.05-.74.89-1.6a237.61,237.61,0,0,0-7.8-29.93c-1.2-3.56-2.48-7.1-3.75-10.74C57.23,82.19,42.09,92.8,31.93,109.92ZM71.6,65.57c-1.27-2.64-2.51-5.13-3.67-7.67-.41-.9-.83-1.14-1.85-.84a184.1,184.1,0,0,1-24.62,5.26,211.84,211.84,0,0,1-30.13,2.32c-.33,0-.66.05-1.08.09a55.55,55.55,0,0,0,14,38.05C36,85.17,51.09,72,71.6,65.57ZM62.36,47.5A371.48,371.48,0,0,0,42,15.75c-16,8.24-26.2,20.89-30.51,38.46A211.23,211.23,0,0,0,62.36,47.5ZM53.48,12c1.08,1.53,2.16,3,3.2,4.51A310.84,310.84,0,0,1,73.26,42.92c.32.58.52,1.08,1.43.72a72.75,72.75,0,0,0,23.1-14.16c1.72-1.58,3.23-3.39,4.84-5.09C88.93,11.8,68.69,7.89,53.48,12Zm68,53a54.36,54.36,0,0,0-12.2-33.65c-8.4,9.81-19,16.55-30.78,21.58,1.51,3.4,3,6.72,4.48,10,.12.25.79.39,1.18.35a118.08,118.08,0,0,1,26.82.29C114.47,63.92,117.95,64.44,121.49,64.93Zm-.62,10.3c-8.33-3.09-29.13-4.43-34-2.22a251,251,0,0,1,10.62,38.84C110.25,102.63,118,90.55,120.87,75.23Z"/>
    </g>
  </g>
</svg>
