<svg class="facebook_logo" xmlns="http://www.w3.org/2000/svg" viewBox="0 0 130.88 130.88">
  <g id="Layer_2" data-name="Layer 2">
    <g id="Layer_4" data-name="Layer 4"><path class="cls-1" d="M64.69,63.11c-3.89,0-7.48,0-11.08,0-2.85,0-4.07,1.16-4.07,4q0,6.71.12,13.43c.05,2.77,1.05,3.68,3.82,3.69h11.1v46.66H62.35q-22.05,0-44.1,0C7.5,130.85,0,123.32,0,112.56Q0,65.25,0,17.94C0,7.64,7.67,0,18,0h95a17.48,17.48,0,0,1,17.84,17.71q0,47.71,0,95.42a17.48,17.48,0,0,1-17.62,17.73c-8.62,0-17.24,0-25.86,0-.59,0-1.17-.07-1.87-.11V84.2H98.18c5.73,0,5.8,0,6.65-5.56.58-3.82,1-7.67,1.37-11.51.26-2.7-1-4-3.69-4-5.6,0-11.21,0-17.13,0,0-1.13,0-2.1,0-3.07,0-3.61-.05-7.22,0-10.82.1-5.05,2.79-7.77,7.84-7.93,2.74-.09,5.48,0,8.22-.05,3.05,0,4.17-1.08,4.2-4,0-3.74,0-7.48,0-11.22,0-2.23-1-3.54-3-3.51-6.26.08-12.6-.19-18.77.68C73.72,24.56,66.39,32.37,65.2,42.61c-.62,5.35-.38,10.79-.51,16.19C64.66,60.13,64.69,61.46,64.69,63.11Z"/>
    </g>
  </g>
</svg>
