<svg class="insta_logo" xmlns="http://www.w3.org/2000/svg" viewBox="0 0 109.93 109.93">
  <g id="Layer_2" data-name="Layer 2">
    <g id="Layer_4" data-name="Layer 4"><path class="cls-1" d="M0,77V33c.17-1.25.44-2.5.51-3.76C1.35,15,10.36,4.3,24.1,1.32,27,.69,30,.43,33,0H77c1.25.18,2.5.44,3.75.51,14,.82,24.44,9.43,27.7,23.1.78,3.24,1,6.61,1.52,9.92V75.85c-.19,1.62-.45,3.23-.55,4.85-.8,13.95-9.43,24.45-23,27.68-3.43.81-7,1-10.5,1.55H33.53c-1.43-.19-2.86-.46-4.31-.54-14.25-.82-25.1-10-28-23.82C.68,82.73.41,79.83,0,77ZM54.64,99.54v0c8.15,0,16.3.18,24.44-.06,6-.18,11.51-2.09,15.59-6.92a21,21,0,0,0,4.8-13.73c.15-15.75.3-31.5,0-47.24-.26-13.19-7.83-20.74-21-21.14C65,10,51.54,10,38.08,10A61.15,61.15,0,0,0,25.8,11.18c-9.27,1.93-15.12,9.14-15.32,19.51-.3,16-.35,32,0,48.06.27,12.81,8,20.31,20.83,20.74C39.07,99.75,46.86,99.54,54.64,99.54Z"/><path class="cls-1" d="M26.76,54.82A28.19,28.19,0,1,1,54.89,83.14,28,28,0,0,1,26.76,54.82Zm28.1,18.35A18.22,18.22,0,1,0,36.74,54.79,18.07,18.07,0,0,0,54.86,73.17Z"/><path class="cls-1" d="M90.84,25.52a6.61,6.61,0,0,1-6.46,6.75,6.82,6.82,0,0,1-6.77-6.54,6.61,6.61,0,0,1,6.56-6.65A6.37,6.37,0,0,1,90.84,25.52Z"/>
    </g>
  </g>
</svg>
