<svg class="mail_logo" xmlns="http://www.w3.org/2000/svg" viewBox="0 0 229.5 164.05"><g id="Layer_2" data-name="Layer 2"><g id="Layer_4" data-name="Layer 4"><path class="cls-1" d="M0,142.26Q0,82,0,21.8a8.37,8.37,0,0,0,.35-1.07C2.12,11.07,7.71,4.64,16.85,1.27A47.83,47.83,0,0,1,21.8,0H208c4.48.88,8.75,2.3,12.3,5.28,5.56,4.65,9.13,10.34,9.12,17.88q0,44.26,0,88.52c0,9.56.13,19.12-.06,28.68A24.41,24.41,0,0,1,205.17,164q-90.43,0-180.86-.13A22.94,22.94,0,0,1,3.5,151.86C1.82,149,1.14,145.48,0,142.26ZM24.39,13c.55.6.83.93,1.13,1.23l86,86c2.67,2.67,4.66,2.64,7.37-.07l85.67-85.76c.37-.37.68-.79,1.17-1.37Zm114.25,84.9-19.46,19.4c-3.08,3.07-4.94,3.06-8-.06L92.41,98.4c-.48-.48-1-.93-1.47-1.4l.42.7L37.29,151.61H192.43Zm8.76-8.76c.68.55,1.27.95,1.76,1.44q29.08,29.16,58.15,58.33c2.41,2.41,3.41,2.56,5.91.18a11.26,11.26,0,0,0,2.91-4.35,21.11,21.11,0,0,0,1-6.55q.09-58.57,0-117.15a12.27,12.27,0,0,0-.14-1.33Zm-65.3-.38L13.72,20.61v1.2q0,59.27,0,118.54a11.81,11.81,0,0,0,.45,4.34,18.79,18.79,0,0,0,3.12,5.06c1.11,1.29,2.35,1.26,3.82-.22q29.7-29.92,59.56-59.68A11.27,11.27,0,0,1,82.1,88.79Z"/></g></g></svg>
