<svg class="medium_logo" xmlns="http://www.w3.org/2000/svg" viewBox="0 0 153.73 131.79">
  <g id="Layer_2" data-name="Layer 2">
    <g id="Layer_4" data-name="Layer 4"><path class="cls-1" d="M51.06,77.93q0,24.47,0,48.94c0,5.31-1.15,6-6,3.6-13.47-6.72-26.9-13.54-40.42-20.15-3.36-1.64-4.7-3.87-4.69-7.6C.09,70,0,37.22.06,4.47c0-4.68.55-5,4.59-3C19.11,8.67,33.54,16,48.07,23.07c2.45,1.2,3.05,2.67,3,5.17C51,44.81,51.06,61.37,51.06,77.93Z"/><path class="cls-1" d="M105.15,103.57,86.27,72.93c-4.31-7-8.55-14-13-21-1.21-1.9-1.41-3.29-.14-5.33q13.75-22,27.21-44.22C101.93-.13,103.23-.64,106,.77,120.73,8.3,135.58,15.62,150.38,23c1,.49,1.87,1.11,3.18,1.89Z"/><path class="cls-1" d="M153.56,35c.06,1.19.16,2.38.16,3.58q0,43.53,0,87.07c0,.5,0,1,0,1.49-.14,4.81-1.45,5.65-5.7,3.53Q130.65,122,113.31,113.3l-6.68-3.35,46.23-75.13Z"/><path class="cls-1" d="M56,32.5l46,74.69a25.28,25.28,0,0,1-2.88-1C85.52,99.48,72,92.66,58.38,85.94c-1.9-.94-2.75-2-2.73-4.25.1-15.3,0-30.61.06-45.91C55.71,35.08,55.83,34.38,56,32.5Z"/>
    </g>
  </g>
</svg>
