<svg class="my_logo" xmlns="http://www.w3.org/2000/svg" viewBox="0 0 759.08 250.11">
  <g id="Layer_2" data-name="Layer 2">
    <g id="Layer_1-2" data-name="Layer 1">
      <path class="cls-1" d="M698.27,189.11H697V90.33c0-12.28-1.61-21.49-5-27.63a19.38,19.38,0,0,0-1.29-2.24q-5.08-7-14.55-7h0c-9.51,0-16.48,4-21,12.09l-.15.24c-.29.53-.71,1.13-1,1.7C650.14,75.78,648,88,648,104.42v84.69H584V90.33c0-.86.64-1.68.7-2.5.12-.09.44-.19.56-.34-.18-8-1-14.69-2.67-19.89a28,28,0,0,0-1.89-4.9c-3.2-6.14-8.31-9.21-15.47-9.21a27,27,0,0,0-6.82.83q-9.63,2.43-14.7,12.32c-.16.31-.31.76-.46,1.09.09,0-.16,0-.07.06Q537,81,537,109.54v79.57H474V8.2L412,69.42v31.84a40.34,40.34,0,0,1,33.81,21.55,39.68,39.68,0,0,1-7,46.39l-.3.32q-1.3,1.29-2.71,2.45c-.46.38-1,.72-1.43,1.08s-1,.74-1.46,1.08c-.67.46-1.38.88-2.08,1.29-.32.19-.64.4-1,.58-.84.47-1.71.89-2.59,1.3l-.6.29q-1.48.65-3,1.18l-.31.11q-1.65.56-3.35,1l-.1,0A40.27,40.27,0,0,1,412.6,181c-.7,0-1.39.11-2.1.11a39.93,39.93,0,0,1-39.93-39.93c0-10.77,3.79-20.52,10.72-27.71L346,148.22v32.89H285v-99c0-12.28-1.65-21.49-5-27.63a19.48,19.48,0,0,0-1.31-2.24q-5.08-7-14.56-7h-.05q-14.27,0-21,12.09l-.15.24c-.29.53-.66,1.13-.93,1.7-3.92,8.25-6,20.51-6,36.9v84.89H172v-99c0-.86.59-1.68.66-2.5.12-.09.42-.19.53-.34-.18-8-1-14.69-2.68-19.89a28,28,0,0,0-1.89-4.9c-3.2-6.14-8.32-9.21-15.47-9.21a27,27,0,0,0-6.82.83q-9.63,2.43-14.7,12.32c-.16.31-.31.76-.46,1.09.09,0-.11,0,0,.06Q125,72.84,125,101.34v79.77H62V0L0,61.22V242.11H64.07L111,194.48v47.63h63.78L223,192.43v49.68h62.49L311.33,216a39.84,39.84,0,0,0,66.72,14c.22-.21.16-.43.38-.64L412,195.5v54.61h64.16L523,202.69v47.43h63.87L636,200.64v49.48h61.58l61.51-61Z"/>
    </g>
  </g>
</svg>
