<svg class="phone_logo" xmlns="http://www.w3.org/2000/svg" viewBox="0 0 857.09 857.09"><g id="Layer_2" data-name="Layer 2"><g id="Layer_1-2" data-name="Layer 1"><path class="cls-1" d="M714.24,594.27q0-6.14-1.12-8.93-1.67-4.46-21.48-16.46t-49.38-27.62l-29.57-16.18q-2.79-1.67-10.6-7.25a85.94,85.94,0,0,0-14-8.37,28.32,28.32,0,0,0-11.72-2.79q-10,0-26.23,18.14t-31.81,36.55q-15.62,18.41-24.55,18.41a27.29,27.29,0,0,1-9.21-2,87.46,87.46,0,0,1-8.65-3.63q-3.35-1.67-9.49-5.3t-7.81-4.74q-55.24-30.69-95.14-70.59t-70.59-95.14q-1.12-1.67-4.74-7.81t-5.3-9.49a87.48,87.48,0,0,1-3.63-8.65,27.29,27.29,0,0,1-2-9.21q0-7.25,11.44-18.69a217.73,217.73,0,0,1,25.11-21.48A190.2,190.2,0,0,0,339,301q11.44-12,11.44-20.37A28.32,28.32,0,0,0,347.63,269a86,86,0,0,0-8.37-14q-5.58-7.81-7.25-10.6-1.67-3.35-8.37-15.9t-14-25.39q-7.25-12.83-14.79-26.51A227.2,227.2,0,0,0,281,154q-6.42-8.93-9.21-10t-8.93-1.12q-26.78,0-56.36,12.28-25.67,11.72-44.64,52.73t-19,72.82a138.21,138.21,0,0,0,1.4,19q1.4,10,2.79,17a183.15,183.15,0,0,0,5,18.41q3.63,11.44,5.58,16.46t7,18.41q5,13.39,6.14,16.74,33.48,91.51,120.81,178.84T470.39,686.34q3.35,1.12,16.74,6.14t18.41,7q5,2,16.46,5.58a183.16,183.16,0,0,0,18.41,5q7,1.39,17,2.79a138.21,138.21,0,0,0,19,1.4q31.81,0,72.82-19T702,650.63q12.28-29.57,12.28-56.36ZM857.09,160.7V696.38q0,66.4-47.15,113.55T696.38,857.09H160.7q-66.4,0-113.55-47.15T0,696.38V160.7Q0,94.3,47.15,47.15T160.7,0H696.38q66.4,0,113.55,47.15T857.09,160.7Z"/></g></g></svg>
