<svg class="my_title" xmlns="http://www.w3.org/2000/svg" viewBox="0 0 842 205.8">
  <g id="Layer_2" data-name="Layer 2">
    <g id="Layer_2-2" data-name="Layer 2">
      <path class="cls-1" d="M68.83,77.54V47.06q0-5.69-1.56-8.54a5.22,5.22,0,0,0-4.92-2.85,6.93,6.93,0,0,0-6.53,3.81q-2.08,3.81-2.08,11.92V77.54H34.34V47.06q0-5.69-1.48-8.54a5,5,0,0,0-4.8-2.85,7,7,0,0,0-6.63,4.06Q19.35,43.79,19.35,53V77.54H0V21.47H14.6L17,28.4h1.14a14.46,14.46,0,0,1,6.46-5.89,22,22,0,0,1,9.62-2q12.12,0,17,7.37H52.8a15.86,15.86,0,0,1,6.61-5.42,22,22,0,0,1,9.33-2q9.95,0,14.7,5.1t4.75,15.49V77.54Z"/>
      <path class="cls-1" d="M141.27,77.54l-2.42-7H137.7a15.74,15.74,0,0,1-6.75,5.91,23.51,23.51,0,0,1-10.17,2.05q-9.25,0-14.4-5.37T101.24,58V21.47h19.35V52.1q0,5.49,1.56,8.31a5.4,5.4,0,0,0,5.12,2.82q5,0,7.12-3.93T136.52,46V21.47h19.35V77.54Z"/><path class="cls-1" d="M203.46,20.48A16.84,16.84,0,0,1,218,28.15q5.37,7.67,5.37,21.23t-5.42,21.4a17.37,17.37,0,0,1-15.07,7.74,20.91,20.91,0,0,1-5.54-.67A16.33,16.33,0,0,1,193,76a22.68,22.68,0,0,1-4.43-4h-1.19l-3.07,5.49H169.22V.54h19.35V18q0,3.12-.69,10.74h.69a17.68,17.68,0,0,1,6.51-6.28A17.81,17.81,0,0,1,203.46,20.48Zm-7.08,15.19q-4.06,0-5.94,2.82t-1.88,8.86v2.72q0,6.88,1.88,9.87t6.14,3q3.41,0,5.24-3.49t1.83-10.27Q203.66,35.68,196.39,35.67Z"/>
      <path class="cls-1" d="M271,77.54l-3.71-7.42h-.4a22,22,0,0,1-8,6.63,26.31,26.31,0,0,1-10.49,1.78q-7.92,0-12.47-4.75t-4.55-13.36q0-9,6.23-13.33t18.06-4.92l9.35-.3v-.79q0-6.93-6.83-6.93-6.14,0-15.59,4.16L237,25.53q9.8-5,24.74-5,10.79,0,16.7,5.34t5.91,14.94V77.54ZM256.6,64.87a8.73,8.73,0,0,0,6-2.23,7.39,7.39,0,0,0,2.5-5.79V52.5l-4.45.2q-9.55.35-9.55,7Q251.11,64.87,256.6,64.87Z"/><path class="cls-1" d="M331.37,20.48a28,28,0,0,1,4.8.4l1.09.2-1.73,18.26a28.46,28.46,0,0,0-6.58-.59q-6.33,0-9.2,2.89T316.87,50V77.54H297.52V21.47h14.4l3,9h.94a19.37,19.37,0,0,1,6.75-7.2A16.17,16.17,0,0,1,331.37,20.48Z"/>
      <path class="cls-1" d="M381.64,77.54l-3.71-7.42h-.4a22,22,0,0,1-8,6.63,26.31,26.31,0,0,1-10.49,1.78q-7.92,0-12.47-4.75t-4.55-13.36q0-9,6.23-13.33t18.06-4.92l9.35-.3v-.79q0-6.93-6.83-6.93-6.14,0-15.59,4.16L347.7,25.53q9.8-5,24.74-5,10.79,0,16.7,5.34T395,40.77V77.54ZM367.29,64.87a8.73,8.73,0,0,0,6-2.23,7.39,7.39,0,0,0,2.5-5.79V52.5l-4.45.2q-9.55.35-9.55,7Q361.8,64.87,367.29,64.87Z"/>
      <path class="cls-1" d="M427,46a100.87,100.87,0,0,1,6-8.71l12.57-15.83h21.57L447.65,45.32l20.68,32.21H446.21L433.94,57.45l-6.28,4.8V77.54H408.21V.54h19.45V30.83A104.7,104.7,0,0,1,426.57,46Z"/>
      <path class="cls-1" d="M543.84,77.54V47.06q0-5.69-1.56-8.54a5.22,5.22,0,0,0-4.92-2.85,6.93,6.93,0,0,0-6.53,3.81q-2.08,3.81-2.08,11.92V77.54h-19.4V47.06q0-5.69-1.48-8.54a5,5,0,0,0-4.8-2.85,7,7,0,0,0-6.63,4.06q-2.08,4.06-2.08,13.26V77.54H475V21.47h14.6L492,28.4h1.14a14.47,14.47,0,0,1,6.46-5.89,22,22,0,0,1,9.62-2q12.12,0,17,7.37h1.53a15.86,15.86,0,0,1,6.61-5.42,22,22,0,0,1,9.33-2q9.94,0,14.7,5.1t4.75,15.49V77.54Z"/><path class="cls-1" d="M612.91,77.54l-3.71-7.42h-.4a22,22,0,0,1-8,6.63,26.32,26.32,0,0,1-10.49,1.78q-7.92,0-12.47-4.75t-4.55-13.36q0-9,6.24-13.33t18.06-4.92l9.35-.3v-.79q0-6.93-6.83-6.93-6.14,0-15.59,4.16L579,25.53q9.8-5,24.74-5,10.79,0,16.7,5.34t5.91,14.94V77.54ZM598.56,64.87a8.73,8.73,0,0,0,6-2.23,7.39,7.39,0,0,0,2.5-5.79V52.5l-4.45.2q-9.55.35-9.55,7Q593.07,64.87,598.56,64.87Z"/>
      <path class="cls-1" d="M673.33,20.48a28,28,0,0,1,4.8.4l1.09.2-1.73,18.26a28.45,28.45,0,0,0-6.58-.59q-6.33,0-9.2,2.89T658.83,50V77.54H639.48V21.47h14.4l3,9h.94a19.36,19.36,0,0,1,6.75-7.2A16.16,16.16,0,0,1,673.33,20.48Z"/>
      <path class="cls-1" d="M723.6,77.54l-3.71-7.42h-.4a22,22,0,0,1-8,6.63A26.32,26.32,0,0,1,701,78.52q-7.92,0-12.47-4.75T684,60.42q0-9,6.24-13.33t18.06-4.92l9.35-.3v-.79q0-6.93-6.83-6.93-6.14,0-15.59,4.16l-5.59-12.77q9.8-5,24.74-5,10.79,0,16.7,5.34T737,40.77V77.54ZM709.25,64.87a8.73,8.73,0,0,0,6-2.23,7.39,7.39,0,0,0,2.5-5.79V52.5l-4.45.2q-9.55.35-9.55,7Q703.76,64.87,709.25,64.87Z"/>
      <path class="cls-1" d="M784.41,36H772.48V77.54H753.14V36h-7.42v-9.5l7.82-4.75v-.94q0-11.08,4.53-15.93T772.58,0a42.87,42.87,0,0,1,7.3.59,58.27,58.27,0,0,1,8,2.08l-4.16,12.52a26,26,0,0,0-7-1,3.78,3.78,0,0,0-3.24,1.36,7.52,7.52,0,0,0-1,4.43v1.48h11.92Z"/>
      <path class="cls-1" d="M828.6,77.54l-3.71-7.42h-.4a22,22,0,0,1-8,6.63A26.32,26.32,0,0,1,806,78.52q-7.92,0-12.47-4.75T789,60.42q0-9,6.24-13.33t18.06-4.92l9.35-.3v-.79q0-6.93-6.83-6.93-6.14,0-15.59,4.16l-5.59-12.77q9.8-5,24.74-5,10.79,0,16.7,5.34T842,40.77V77.54ZM814.25,64.87a8.73,8.73,0,0,0,6-2.23,7.39,7.39,0,0,0,2.5-5.79V52.5l-4.45.2q-9.55.35-9.55,7Q808.75,64.87,814.25,64.87Z"/>
      <path class="cls-1" d="M387,135.64a17.71,17.71,0,0,0,2.79-.21,17.91,17.91,0,0,0,2.13-.44v4.16a10,10,0,0,1-2.61.7,19.6,19.6,0,0,1-3.1.28q-10.42,0-10.42-11V107.77h-5.15v-2.62l5.15-2.26,2.29-7.67h3.15v8.33h10.42v4.23H381.22v21.14a7.27,7.27,0,0,0,1.54,5A5.36,5.36,0,0,0,387,135.64Z"/>
      <path class="cls-1" d="M423.67,139.47V116.23q0-4.39-2-6.56t-6.26-2.16q-5.67,0-8.28,3.08t-2.61,10.1v18.78h-5.44v-51h5.44V103.9a33.64,33.64,0,0,1-.26,4.62h.33a11.1,11.1,0,0,1,4.57-4.08,14.87,14.87,0,0,1,6.77-1.49q6.59,0,9.88,3.13t3.29,9.95v23.44Z"/>
      <path class="cls-1" d="M455.47,140.13q-8,0-12.57-4.85t-4.61-13.47q0-8.69,4.28-13.8a14.21,14.21,0,0,1,11.49-5.11q6.75,0,10.69,4.44T468.68,119v3.44H443.93q.16,6.33,3.2,9.61t8.54,3.28a28.93,28.93,0,0,0,11.47-2.43v4.85a28.82,28.82,0,0,1-5.46,1.79A30.66,30.66,0,0,1,455.47,140.13ZM454,107.44a8.89,8.89,0,0,0-6.9,2.82,13,13,0,0,0-3,7.8h18.78q0-5.15-2.29-7.88A8.08,8.08,0,0,0,454,107.44Z"/>
      <path class="cls-1" d="M108.7,143.21a3.66,3.66,0,0,1,.93-2.77,3.44,3.44,0,0,1,4.62,0,3.59,3.59,0,0,1,1,2.76,3.65,3.65,0,0,1-1,2.77,3.21,3.21,0,0,1-2.29.91,3.18,3.18,0,0,1-2.32-.91A3.73,3.73,0,0,1,108.7,143.21Zm6,46.25h-5.51V153.07h5.51Z"/>
      <path class="cls-1" d="M151.27,189.46V165.92q0-4.45-2-6.64t-6.34-2.19q-5.71,0-8.37,3.09t-2.66,10.19v19.09h-5.51V153.07h4.48l.9,5H132a11.26,11.26,0,0,1,4.75-4.17,15.44,15.44,0,0,1,6.81-1.48q6.57,0,9.9,3.17t3.32,10.14v23.74Z"/>
      <path class="cls-1" d="M179.86,185.58a17.94,17.94,0,0,0,2.82-.22,18.15,18.15,0,0,0,2.16-.45v4.22a10.08,10.08,0,0,1-2.64.71,19.91,19.91,0,0,1-3.14.28q-10.56,0-10.56-11.12V157.35h-5.21V154.7l5.21-2.29,2.32-7.77H174v8.43h10.56v4.28H174v21.42a7.36,7.36,0,0,0,1.56,5A5.43,5.43,0,0,0,179.86,185.58Z"/>
      <path class="cls-1" d="M207.48,190.13q-8.07,0-12.73-4.92t-4.67-13.65q0-8.8,4.33-14a14.39,14.39,0,0,1,11.64-5.18q6.84,0,10.82,4.5t4,11.87v3.49H195.8Q196,178.67,199,182t8.65,3.32a29.3,29.3,0,0,0,11.62-2.46v4.92a29.21,29.21,0,0,1-5.53,1.81A31.08,31.08,0,0,1,207.48,190.13ZM206,157a9,9,0,0,0-7,2.86,13.16,13.16,0,0,0-3.07,7.9h19q0-5.21-2.32-8A8.18,8.18,0,0,0,206,157Z"/>
      <path class="cls-1" d="M246.87,152.41a21.57,21.57,0,0,1,4.35.4l-.76,5.11a18.78,18.78,0,0,0-4-.5,9.7,9.7,0,0,0-7.55,3.59,13.08,13.08,0,0,0-3.14,8.93v19.52h-5.51V153.07h4.55l.63,6.74h.27a16,16,0,0,1,4.88-5.48A11,11,0,0,1,246.87,152.41Z"/>
      <path class="cls-1" d="M280.4,189.46l-1.1-5.18H279a15.31,15.31,0,0,1-5.43,4.63,16.56,16.56,0,0,1-6.76,1.21q-5.41,0-8.48-2.79t-3.07-7.94q0-11,17.63-11.56l6.18-.2v-2.26q0-4.28-1.84-6.33t-5.89-2a24,24,0,0,0-10.29,2.79l-1.69-4.22a25.9,25.9,0,0,1,5.89-2.29,25.56,25.56,0,0,1,6.43-.83q6.51,0,9.65,2.89t3.14,9.26v24.84ZM268,185.58q5.15,0,8.09-2.82t2.94-7.9v-3.29l-5.51.23q-6.57.23-9.48,2a6.16,6.16,0,0,0-2.91,5.63,5.68,5.68,0,0,0,1.81,4.55A7.51,7.51,0,0,0,268,185.58Z"/>
      <path class="cls-1" d="M310.39,190.13q-7.9,0-12.24-4.87t-4.33-13.76q0-9.13,4.4-14.11t12.54-5A24.9,24.9,0,0,1,316,153a17.33,17.33,0,0,1,4.12,1.33L318.42,159a26,26,0,0,0-4-1.21,17.8,17.8,0,0,0-3.82-.48q-11.09,0-11.09,14.15,0,6.71,2.71,10.29t8,3.59a24.51,24.51,0,0,0,9.33-2v4.88A19.89,19.89,0,0,1,310.39,190.13Z"/>
      <path class="cls-1" d="M340,185.58a17.94,17.94,0,0,0,2.82-.22,18.15,18.15,0,0,0,2.16-.45v4.22a10.08,10.08,0,0,1-2.64.71,19.91,19.91,0,0,1-3.14.28q-10.56,0-10.56-11.12V157.35H323.4V154.7l5.21-2.29,2.32-7.77h3.19v8.43h10.56v4.28H334.13v21.42a7.36,7.36,0,0,0,1.56,5A5.43,5.43,0,0,0,340,185.58Z"/>
      <path class="cls-1" d="M351.76,143.21a3.66,3.66,0,0,1,.93-2.77,3.44,3.44,0,0,1,4.62,0,3.59,3.59,0,0,1,1,2.76,3.65,3.65,0,0,1-1,2.77,3.21,3.21,0,0,1-2.29.91,3.18,3.18,0,0,1-2.32-.91A3.73,3.73,0,0,1,351.76,143.21Zm6,46.25h-5.51V153.07h5.51Z"/>
      <path class="cls-1" d="M400.84,171.23q0,8.9-4.48,13.9t-12.39,5a16.4,16.4,0,0,1-8.67-2.29,15.12,15.12,0,0,1-5.84-6.58,22.9,22.9,0,0,1-2.06-10q0-8.9,4.45-13.86t12.35-5q7.64,0,12.14,5.08T400.84,171.23Zm-27.73,0q0,7,2.79,10.63t8.2,3.65q5.41,0,8.22-3.64t2.81-10.64q0-6.94-2.81-10.54t-8.28-3.6q-5.41,0-8.17,3.55T373.11,171.23Z"/>
      <path class="cls-1" d="M435.41,189.46V165.92q0-4.45-2-6.64T427,157.09q-5.71,0-8.37,3.09T416,170.37v19.09H410.5V153.07H415l.9,5h.27a11.26,11.26,0,0,1,4.75-4.17,15.44,15.44,0,0,1,6.81-1.48q6.58,0,9.9,3.17t3.32,10.14v23.74Z"/>
      <path class="cls-1" d="M494.68,184.58h-.3q-3.82,5.55-11.42,5.55-7.14,0-11.11-4.88t-4-13.88q0-9,4-14t11.09-5q7.4,0,11.36,5.38h.43l-.23-2.62-.13-2.56V137.8h5.51v51.67h-4.48Zm-11,.93q5.65,0,8.19-3.07t2.54-9.91v-1.16q0-7.74-2.57-11t-8.22-3.3a8.43,8.43,0,0,0-7.42,3.77q-2.57,3.77-2.57,10.64T476.15,182A8.66,8.66,0,0,0,483.65,185.51Z"/>
      <path class="cls-1" d="M527,190.13q-8.07,0-12.73-4.92t-4.67-13.65q0-8.8,4.33-14a14.39,14.39,0,0,1,11.64-5.18q6.84,0,10.83,4.5t4,11.87v3.49H515.26q.17,6.41,3.24,9.73t8.65,3.32a29.3,29.3,0,0,0,11.62-2.46v4.92a29.21,29.21,0,0,1-5.53,1.81A31.08,31.08,0,0,1,527,190.13ZM525.46,157a9,9,0,0,0-7,2.86,13.16,13.16,0,0,0-3.07,7.9h19q0-5.21-2.32-8A8.18,8.18,0,0,0,525.46,157Z"/>
      <path class="cls-1" d="M573.21,179.54a9.12,9.12,0,0,1-3.79,7.84q-3.79,2.76-10.63,2.76-7.24,0-11.29-2.29v-5.11a27.26,27.26,0,0,0,5.63,2.09,23.47,23.47,0,0,0,5.79.76,13.14,13.14,0,0,0,6.64-1.38,4.74,4.74,0,0,0,.48-7.84,29,29,0,0,0-7.19-3.57,39,39,0,0,1-7.22-3.3,9.86,9.86,0,0,1-3.19-3.2,8.36,8.36,0,0,1-1-4.28,8.16,8.16,0,0,1,3.62-7q3.62-2.57,9.93-2.57a29,29,0,0,1,11.49,2.39l-2,4.48a26.39,26.39,0,0,0-9.93-2.26,11.42,11.42,0,0,0-5.91,1.23,3.8,3.8,0,0,0-2,3.39,4.12,4.12,0,0,0,.75,2.49,7.36,7.36,0,0,0,2.41,2,53.63,53.63,0,0,0,6.38,2.69q6.47,2.36,8.75,4.75A8.38,8.38,0,0,1,573.21,179.54Z"/>
      <path class="cls-1" d="M581.71,143.21a3.66,3.66,0,0,1,.93-2.77,3.44,3.44,0,0,1,4.62,0,3.6,3.6,0,0,1,1,2.76,3.65,3.65,0,0,1-1,2.77,3.22,3.22,0,0,1-2.29.91,3.18,3.18,0,0,1-2.33-.91A3.73,3.73,0,0,1,581.71,143.21Zm6,46.25h-5.51V153.07h5.51Z"/>
      <path class="cls-1" d="M629.16,153.07v3.49l-6.74.8a11.84,11.84,0,0,1,2.39,7.27,10.76,10.76,0,0,1-3.65,8.53q-3.65,3.19-10,3.19a16.63,16.63,0,0,1-3.05-.27q-3.52,1.86-3.52,4.68a2.38,2.38,0,0,0,1.23,2.21,9,9,0,0,0,4.22.71h6.44q5.91,0,9.08,2.49a8.65,8.65,0,0,1,3.17,7.24,10.34,10.34,0,0,1-4.85,9.21Q619,205.8,609.7,205.8q-7.14,0-11-2.66a8.58,8.58,0,0,1-3.87-7.5,8.42,8.42,0,0,1,2.13-5.74,10.82,10.82,0,0,1,6-3.29,5.77,5.77,0,0,1-2.34-2,5.18,5.18,0,0,1-.95-3.09,5.86,5.86,0,0,1,1.06-3.49,11.18,11.18,0,0,1,3.35-2.89,9.83,9.83,0,0,1-4.6-4,11.61,11.61,0,0,1-1.78-6.38q0-6,3.59-9.21t10.16-3.24a18.49,18.49,0,0,1,5.15.66Zm-29,42.5a4.94,4.94,0,0,0,2.49,4.48,13.74,13.74,0,0,0,7.14,1.53q6.94,0,10.28-2.08a6.35,6.35,0,0,0,3.34-5.63q0-3-1.83-4.1t-6.87-1.15h-6.61a8.7,8.7,0,0,0-5.84,1.79A6.4,6.4,0,0,0,600.14,195.57Zm3-30.85a7.41,7.41,0,0,0,2.16,5.78,8.62,8.62,0,0,0,6,2q8.07,0,8.07-7.84,0-8.2-8.17-8.2a8.09,8.09,0,0,0-6,2.09Q603.12,160.61,603.13,164.73Z"/>
      <path class="cls-1" d="M661.53,189.46V165.92q0-4.45-2-6.64t-6.34-2.19q-5.71,0-8.37,3.09t-2.66,10.19v19.09h-5.51V153.07h4.48l.9,5h.27a11.25,11.25,0,0,1,4.75-4.17,15.44,15.44,0,0,1,6.81-1.48q6.58,0,9.9,3.17T667,165.72v23.74Z"/>
      <path class="cls-1" d="M693.74,190.13q-8.07,0-12.73-4.92t-4.67-13.65q0-8.8,4.33-14a14.39,14.39,0,0,1,11.64-5.18q6.84,0,10.83,4.5t4,11.87v3.49H682.05q.17,6.41,3.24,9.73t8.65,3.32a29.3,29.3,0,0,0,11.62-2.46v4.92a29.21,29.21,0,0,1-5.53,1.81A31.08,31.08,0,0,1,693.74,190.13ZM692.25,157a9,9,0,0,0-7,2.86,13.16,13.16,0,0,0-3.07,7.9h19q0-5.21-2.32-8A8.18,8.18,0,0,0,692.25,157Z"/>
      <path class="cls-1" d="M733.12,152.41a21.58,21.58,0,0,1,4.35.4l-.76,5.11a18.79,18.79,0,0,0-4-.5,9.7,9.7,0,0,0-7.55,3.59,13.08,13.08,0,0,0-3.14,8.93v19.52h-5.51V153.07h4.55l.63,6.74H722a16,16,0,0,1,4.88-5.48A11,11,0,0,1,733.12,152.41Z"/>
      <rect class="cls-1" x="62.79" y="112.72" width="292.46" height="10"/><rect class="cls-1" x="486.56" y="112.72" width="292.46" height="10"/>
    </g>
  </g>
</svg>
