<svg class="facebook_logo" xmlns="http://www.w3.org/2000/svg" viewBox="0 0 88.9 88.9">
  <path d="M59.6 86.2v-25c0-1.4 0-1.4 1.2-1.4H69c1.2 0 1.6-.2 1.7-1.3.3-1.5.4-3 .6-4.6l1-6c0-2 0-2-1.5-2H61c-1 0-1.2 0-1-1v-7c0-5 2-6 5.5-6h6.2c.8 0 1 0 1-1v-9c0-1 0-1-.8-1-4 0-7-1-10-1a16.7 16.7 0 0 0-9 2 13 13 0 0 0-6 8.3 41 41 0 0 0-1 7v7c0 1 0 1.2-1 1h-8c-1 0-2 .4-2 1.5v12c0 .7 0 1 1 1h9c1 0 1 0 1 1.3v26.5c0 1.3 0 1.4-1.4 1.3A44.7 44.7 0 0 1 1 53a42 42 0 0 1-1-12 43.5 43.5 0 0 1 9-23.3A44 44 0 0 1 31 2 36 36 0 0 1 40.4.3a60.5 60.5 0 0 1 7.2 0 42 42 0 0 1 15 3.7c14 6.6 22.7 17.4 25.5 32.5C91 50 88 62 79 72.8a44.8 44.8 0 0 1-18 13l-1 .4z" data-name="Layer 2"/>
</svg>
