<svg class="phone_logo" xmlns="http://www.w3.org/2000/svg" viewBox="0 0 96.5 96.5">
  <path d="M45.3 0h6l3.4.5A46.3 46.3 0 0 1 70 5.2a48 48 0 0 1 17.5 15A47.2 47.2 0 0 1 96 42c0 1 .3 2.2.5 3.3v6l-.5 3.5a46.5 46.5 0 0 1-4.8 15.4 48 48 0 0 1-15 17.3A47.2 47.2 0 0 1 54.8 96l-3.5.5h-6L42 96a46.2 46.2 0 0 1-15.5-4.8A48 48 0 0 1 9 76.2 47.2 47.2 0 0 1 .5 54.8L0 51.2v-6.6l1.3-7a46.8 46.8 0 0 1 11-21.4A48.2 48.2 0 0 1 41.7.5zM21 30.5A47.6 47.6 0 0 0 23 42a45.4 45.4 0 0 0 4.7 11 44.8 44.8 0 0 0 9 11 46 46 0 0 0 9.3 6.3 45 45 0 0 0 9.6 3.7A42.3 42.3 0 0 0 67 75.3a4.8 4.8 0 0 0 3.4-1.4q1.5-2 3-3a6.4 6.4 0 0 0 2-4 7.3 7.3 0 0 0-5-8.4L64 57.3a6.7 6.7 0 0 0-7 1.8c-.8.8-1.3 1-2 2a1 1 0 0 1-1 0 27 27 0 0 1-9-4.6 27.7 27.7 0 0 1-9-12.7c-.7-1.2-1-2.3.4-3a3.4 3.4 0 0 0 .4-.5c2.4-2 3.4-4.7 2.3-8l-1-4a11.7 11.7 0 0 0-2-4 7 7 0 0 0-9-2 10.4 10.4 0 0 0-1.4 1.5l-3 2.8a5 5 0 0 0-1.2 4z" data-name="Layer 2"/>
</svg>
