<svg class="facebook_logo" xmlns="http://www.w3.org/2000/svg" viewBox="0 0 130.9 130.9">
  <path class="cls-1" d="M64.7 63h-11c-3 0-4.2 1.3-4.2 4q0 6.8.2 13.5c0 2.8 1 3.7 3.8 3.7h11V131H18.3C7.6 130.7 0 123.2 0 112.5V18C0 7.5 7.7 0 18 0h95a17.5 17.5 0 0 1 17.8 17.7V113a17.5 17.5 0 0 1-17.6 18H87.4l-2-.3V84.2h12.8c5.7 0 5.8 0 6.6-5.6.6-3.8 1-7.6 1.4-11.5.3-2.4-1-4-3.7-4h-17v-3c0-3.4-.2-7 0-10.6 0-5 2.7-7.7 7.7-8h8.2c3 0 4.2-1 4.2-4V26c0-2.2-1-3.5-3-3.5-6.2 0-12.6-.2-18.7.7-10.5 1.4-17.8 9.2-19 19.4-.6 5.4-.4 10.8-.5 16.2V63z" data-name="Layer 4"/>
</svg>
