<svg class="medium_logo" xmlns="http://www.w3.org/2000/svg" viewBox="0 0 153.7 131.8">
  <path d="M51 78v49c0 5.2-1 6-6 3.5-13.4-6.8-26.8-13.6-40.4-20.2-3.3-1.6-4.7-4-4.6-7.6V4.5c0-4.7.6-5 4.6-3L48 23c2.5 1.3 3 2.7 3 5.2V78zm54.2 25.6L86.2 73c-4.2-7-8.5-14-13-21-1-2-1.3-3.4 0-5.4q13.7-22 27-44.2c1.7-2.5 3-3 5.8-1.6 14.7 7.5 29.6 14.8 44.4 22.2 1 .5 1.8 1 3.2 2zM153.6 35v92c0 5-1.3 5.8-5.6 3.7l-34.7-17.4-6.7-3.4L153 34.6zM56 32.5l46 74.7a25.3 25.3 0 0 1-3-1L58.5 86c-2-1-2.8-2-2.7-4.3v-46c0-.6 0-1.3.3-3.2z" data-name="Layer 4"/>
</svg>
