<svg class="my_alt_logo" xmlns="http://www.w3.org/2000/svg" viewBox="0 0 759.1 250.1">
  <path class="cls-1" d="M698.3 189H697V90.4c0-12.2-1.6-21.5-5-27.6a19.4 19.4 0 0 0-1.3-2.2q-5-7-14.5-7c-9.5 0-16.5 4-21 12l-.2.3-1 1c-4 8.2-6 20.4-6 37v85h-64V90.2c0-.8.6-1.6.7-2.5l.6-1c-.2-8-1-14.7-2.7-20a28 28 0 0 0-2-4.8c-3-6-8.2-9.2-15.4-9.2a27 27 0 0 0-6.8 1q-9.6 2.4-14.7 12.3l-.5 1v.3q-6.2 13-6.2 41.5v80h-63V8.4l-62 61.2v32a40.3 40.3 0 0 1 33.8 21.4 39.7 39.7 0 0 1-7 46l-.3.2-2.7 2.5-1.4 1-1.5 1-3 1.4-1 1c-.8.7-1.7 1-2.6 1.5l-.6.3-3 1.2h-.3l-3.3 1a40.3 40.3 0 0 1-7.6 1h-2a40 40 0 0 1-40-39.8c0-10.6 4-20.3 10.6-27.5l-35 34.6v33h-61V82c0-12.4-1.7-21.6-5-27.7A19.5 19.5 0 0 0 278 52q-5-7-14.6-7-14 0-21 12v.4l-1 1.7c-4 9-6 21-6 37v85h-64V82c0-.8.8-1.6 1-2.4l.4-.4c0-8-1-14.7-2.6-20a28 28 0 0 0-2-4.8c-3-6-8.2-9.2-15.3-9.2a27 27 0 0 0-7 .8q-9.5 2.5-14.6 12.4c0 .3-.3.7-.4 1q-6 13.4-6 42V181H62V0L0 61.2v181h64l47-47.7V242h63.8l48.2-49.6V242h62.5l25.8-26a39.8 39.8 0 0 0 66.7 14c.3-.2.2-.4.4-.6l33.6-34V250h64.2l46.8-47v47h64l49-49.4V250h61.6l61.5-61z" data-name="Layer 1"/>
</svg>
