<svg class="logo_name" xmlns="http://www.w3.org/2000/svg" viewBox="0 0 615.98 61.99">
  <g id="Layer_2" data-name="Layer 2">
    <path class="cls-1" d="M54.34 61.21V37.15a14.44 14.44 0 0 0-1.23-6.74 4.12 4.12 0 0 0-3.89-2.25 5.47 5.47 0 0 0-5.16 3q-1.64 3-1.64 9.41v20.64H27.11V37.15a15.07 15.07 0 0 0-1.17-6.74 4 4 0 0 0-3.79-2.25 5.49 5.49 0 0 0-5.23 3.2q-1.64 3.2-1.64 10.47v19.38H0V17h11.52l1.91 5.47h.9a11.42 11.42 0 0 1 5.1-4.65 17.36 17.36 0 0 1 7.6-1.6q9.57 0 13.44 5.82h1.21a12.53 12.53 0 0 1 5.21-4.28 17.35 17.35 0 0 1 7.36-1.54q7.85 0 11.6 4t3.75 12.23v28.76zm57.18 0l-1.91-5.51h-.9a12.42 12.42 0 0 1-5.33 4.67 18.57 18.57 0 0 1-8 1.62Q88 62 84 57.75t-4.06-12V17H95.2v24.13a13.89 13.89 0 0 0 1.23 6.56 4.26 4.26 0 0 0 4 2.23 5.88 5.88 0 0 0 5.63-3.11q1.68-3.11 1.68-10.49V17H123v44.21zm49.11-45.04a13.3 13.3 0 0 1 11.46 6.05q4.24 6.06 4.24 16.76t-4.28 16.89A13.71 13.71 0 0 1 160.16 62a16.51 16.51 0 0 1-4.37-.53 12.88 12.88 0 0 1-3.43-1.47 17.88 17.88 0 0 1-3.5-3.12h-.94l-2.42 4.34h-11.91V.43h15.27v13.75q0 2.46-.55 8.48h.55a14 14 0 0 1 5.14-5 14.06 14.06 0 0 1 6.63-1.49zm-5.59 12a5.23 5.23 0 0 0-4.69 2.23q-1.49 2.23-1.48 7v2.15q0 5.43 1.48 7.79a5.28 5.28 0 0 0 4.84 2.36 4.51 4.51 0 0 0 4.14-2.75q1.44-2.75 1.45-8.11 0-10.68-5.78-10.68zm58.87 33.04L211 55.35h-.31a17.4 17.4 0 0 1-6.29 5.23 20.78 20.78 0 0 1-8.31 1.42q-6.25 0-9.84-3.75t-3.59-10.55q0-7.07 4.92-10.53t14.26-3.89l7.38-.23v-.62q0-5.47-5.39-5.47-4.84 0-12.3 3.28l-4.41-10.08q7.73-4 19.53-4 8.52 0 13.18 4.22t4.67 11.8v29zm-11.33-10a6.89 6.89 0 0 0 4.75-1.76 5.84 5.84 0 0 0 2-4.57v-3.43l-3.52.16q-7.54.27-7.54 5.55-.03 4.05 4.31 4.05zm59.02-35.04a22.13 22.13 0 0 1 3.79.31l.86.16-1.37 14.41a22.47 22.47 0 0 0-5.2-.47q-5 0-7.27 2.29t-2.27 6.58v21.76h-15.26V17h11.37l2.38 7h.74a15.28 15.28 0 0 1 5.33-5.68 12.76 12.76 0 0 1 6.9-2.15zm39.69 45.04l-2.93-5.86H298a17.4 17.4 0 0 1-6.29 5.23 20.78 20.78 0 0 1-8.23 1.42q-6.25 0-9.84-3.75T270 47.7q0-7.07 4.92-10.53t14.26-3.89l7.42-.28v-.62q0-5.47-5.39-5.47-4.84 0-12.3 3.28l-4.41-10.08q7.73-4 19.53-4 8.52 0 13.18 4.22t4.67 11.8v29zm-11.29-10a6.89 6.89 0 0 0 4.75-1.76 5.84 5.84 0 0 0 2-4.57v-3.43l-3.52.16q-7.54.27-7.54 5.55-.07 4.05 4.31 4.05zm47.07-14.88a79.47 79.47 0 0 1 4.73-6.87L351.72 17h17L353.4 35.78l16.33 25.43h-17.46l-9.69-15.86-5 3.79v12.07h-15.31V.43h15.35v23.91a82.63 82.63 0 0 1-.86 12zm92.81 24.88V33.36q0-6.21-2.42-9.06T420 21.45q-6.52 0-9.65 3.59t-3.12 11.29v24.88h-3.95v-29q0-10.74-9.84-10.74-6.68 0-9.73 3.89t-3 12.44v23.41h-3.87V18.75H380l.82 5.82h.23a12.17 12.17 0 0 1 5-4.9 14.89 14.89 0 0 1 7.15-1.74q10 0 12.89 7.54h.16a14.43 14.43 0 0 1 5.57-5.59 16 16 0 0 1 7.95-2q7 0 10.43 3.71t3.48 11.8v27.82zm43.36 0l-1-6.72H472a20.17 20.17 0 0 1-6.58 5.8 17.58 17.58 0 0 1-8 1.7q-6.25 0-9.73-3.2t-3.48-8.87a10.94 10.94 0 0 1 5.18-9.65q5.18-3.44 15-3.63l8.09-.23v-2.82q0-6.05-2.46-9.14T462 21.37a26.52 26.52 0 0 0-12.23 3.28l-1.45-3.36A32.36 32.36 0 0 1 462.19 18q7 0 10.45 3.63T476.09 33v28.21zm-15.62-2.73q6.8 0 10.72-3.89t3.93-10.8v-4.18l-7.42.31q-8.95.43-12.75 2.79a8 8 0 0 0-3.81 7.36 7.92 7.92 0 0 0 2.44 6.19q2.43 2.22 6.89 2.22zm48.94-40.55a33.26 33.26 0 0 1 5.78.55l-.74 3.71a22.65 22.65 0 0 0-5.51-.66 10.7 10.7 0 0 0-8.91 4.61 18.79 18.79 0 0 0-3.48 11.64v23.43h-3.87V18.75h3.28l.39 7.66h.27a18 18 0 0 1 5.59-6.58 13.09 13.09 0 0 1 7.2-1.9zm40.2 43.28l-1-6.72h-.31a20.17 20.17 0 0 1-6.58 5.8 17.58 17.58 0 0 1-8 1.7q-6.25 0-9.73-3.2t-3.48-8.87a10.94 10.94 0 0 1 5.18-9.65q5.18-3.44 15-3.63l8.09-.23v-2.82q0-6.05-2.46-9.14t-7.93-3.09a26.52 26.52 0 0 0-12.23 3.28l-1.45-3.36A32.36 32.36 0 0 1 535.7 18q7 0 10.45 3.63T549.61 33v28.21zm-15.62-2.73q6.8 0 10.72-3.89t3.93-10.8v-4.18l-7.42.31q-8.95.43-12.75 2.79a8 8 0 0 0-3.81 7.36 7.92 7.92 0 0 0 2.44 6.19q2.43 2.22 6.88 2.22zm48-36.37h-10v39.1h-3.87v-39.1h-7.89v-2.27l7.89-1.45v-3.27q0-7.81 2.87-11.46t9.4-3.66a24.36 24.36 0 0 1 7 1.05l-.9 3.36a20.76 20.76 0 0 0-6.21-1q-4.53 0-6.43 2.68t-1.89 8.69v3.95h10zm33.98 39.1l-1-6.72h-.31a20.17 20.17 0 0 1-6.58 5.8 17.58 17.58 0 0 1-8 1.7q-6.25 0-9.73-3.2t-3.48-8.87a10.94 10.94 0 0 1 5.18-9.65q5.18-3.44 15-3.63l8.09-.23v-2.82q0-6.05-2.46-9.14t-7.93-3.09a26.52 26.52 0 0 0-12.23 3.28l-1.45-3.36A32.36 32.36 0 0 1 602.07 18q7 0 10.45 3.63T616 33v28.21zm-15.62-2.73q6.8 0 10.72-3.89t3.93-10.8v-4.18l-7.42.31q-8.95.43-12.75 2.79a8 8 0 0 0-3.81 7.36 7.92 7.92 0 0 0 2.44 6.19q2.39 2.22 6.89 2.22z" id="Information"/>
  </g>
</svg>
