<svg class="q1_logo" style="fill:666666;" xmlns="http://www.w3.org/2000/svg" viewBox="0 0 4.23 3.89"><title>q_1</title><g id="Layer_2" data-name="Layer 2"><g id="Layer_1-2" data-name="Layer 1"><path d="M0,2.62A3.5,3.5,0,0,1,.34,1.37,5.64,5.64,0,0,1,1.24,0l.45.33a2.78,2.78,0,0,0-.23.33,4.61,4.61,0,0,0-.25.47A4.27,4.27,0,0,0,1,1.68a2,2,0,0,0-.09.55l.14,0h.12a1,1,0,0,1,.31,0,.69.69,0,0,1,.26.14.66.66,0,0,1,.17.25.82.82,0,0,1,0,.36,1,1,0,0,1-.27.63,1,1,0,0,1-.28.2A.84.84,0,0,1,1,3.88a1,1,0,0,1-.48-.09.89.89,0,0,1-.33-.27A1.07,1.07,0,0,1,0,3.12,1.83,1.83,0,0,1,0,2.62Zm2.28,0a3.5,3.5,0,0,1,.33-1.25A5.64,5.64,0,0,1,3.52,0L4,.33a2.78,2.78,0,0,0-.23.33,4.61,4.61,0,0,0-.25.47,4.27,4.27,0,0,0-.21.54,2,2,0,0,0-.09.55l.14,0h.12a1,1,0,0,1,.31,0A.69.69,0,0,1,4,2.38a.66.66,0,0,1,.17.25.82.82,0,0,1,0,.36A1,1,0,0,1,4,3.61a1,1,0,0,1-.28.2.84.84,0,0,1-.36.08,1,1,0,0,1-.48-.09.89.89,0,0,1-.33-.27,1.07,1.07,0,0,1-.18-.4A1.83,1.83,0,0,1,2.28,2.62Z"/></g></g></svg>
