<svg class="q2_logo" style="fill:666666;" xmlns="http://www.w3.org/2000/svg" viewBox="0 0 4.18 3.89"><title>q_2</title><g id="Layer_2" data-name="Layer 2"><g id="Layer_1-2" data-name="Layer 1"><path d="M1.95,1.27a3.5,3.5,0,0,1-.33,1.25A5.64,5.64,0,0,1,.71,3.89L.26,3.55a2.78,2.78,0,0,0,.23-.33,4.61,4.61,0,0,0,.25-.47A4.27,4.27,0,0,0,1,2.21,2,2,0,0,0,1,1.66l-.14,0H.79a1,1,0,0,1-.31,0,.69.69,0,0,1-.26-.14.66.66,0,0,1-.17-.25A.82.82,0,0,1,0,.9,1,1,0,0,1,.27.28,1,1,0,0,1,.55.08.84.84,0,0,1,.91,0a1,1,0,0,1,.48.09.89.89,0,0,1,.33.27,1.07,1.07,0,0,1,.18.4A1.83,1.83,0,0,1,1.95,1.27Zm2.23,0a3.5,3.5,0,0,1-.33,1.25,5.64,5.64,0,0,1-.91,1.37l-.45-.33a2.78,2.78,0,0,0,.23-.33A4.61,4.61,0,0,0,3,2.75a4.27,4.27,0,0,0,.21-.54,2,2,0,0,0,.09-.55l-.14,0H3a1,1,0,0,1-.31,0,.69.69,0,0,1-.26-.14.66.66,0,0,1-.17-.25.82.82,0,0,1,0-.36A1,1,0,0,1,2.5.28a1,1,0,0,1,.28-.2A.84.84,0,0,1,3.14,0a1,1,0,0,1,.48.09.89.89,0,0,1,.33.27,1.07,1.07,0,0,1,.18.4A1.83,1.83,0,0,1,4.17,1.27Z"/></g></g></svg>
