<svg class="my_title" xmlns="http://www.w3.org/2000/svg" viewBox="0 0 842 205.8">
  <path class="cls-1" d="M68.83 77.54V47.06q0-5.7-1.56-8.54a5.22 5.22 0 0 0-4.92-2.85 6.93 6.93 0 0 0-6.53 3.8q-2.08 3.82-2.08 11.93v26.14h-19.4V47.06q0-5.7-1.48-8.54a5 5 0 0 0-4.8-2.85 7 7 0 0 0-6.63 4.06Q19.35 43.8 19.35 53v24.54H0V21.47h14.6L17 28.4h1.14a14.46 14.46 0 0 1 6.46-5.9 22 22 0 0 1 9.62-2q12.12 0 17 7.38h1.58a15.86 15.86 0 0 1 6.6-5.42 22 22 0 0 1 9.34-2q9.95 0 14.7 5.1t4.75 15.5v36.48zm72.44 0l-2.42-7h-1.15a15.74 15.74 0 0 1-6.75 5.9 23.5 23.5 0 0 1-10.17 2.06q-9.25 0-14.4-5.37T101.24 58V21.47h19.35V52.1q0 5.5 1.5 8.3a5.4 5.4 0 0 0 5.1 2.83q5 0 7.1-3.93t2.2-13.3V21.47h19.3v56.07zm62.2-57.06A16.84 16.84 0 0 1 218 28.15q5.37 7.67 5.37 21.23t-5.42 21.4a17.37 17.37 0 0 1-15.07 7.74 20.9 20.9 0 0 1-5.54-.67A16.33 16.33 0 0 1 193 76a22.68 22.68 0 0 1-4.43-4h-1.2l-3.06 5.5h-15V.53h19.4V18q0 3.12-.7 10.74h.7a17.68 17.68 0 0 1 6.5-6.28 17.8 17.8 0 0 1 8.4-1.98zm-7.1 15.2q-4.05 0-5.93 2.8t-1.88 8.87v2.72q0 6.88 1.88 9.87t6.14 3q3.4 0 5.24-3.5t1.83-10.26q0-13.5-7.26-13.5zM271 77.54l-3.7-7.42h-.4a22 22 0 0 1-8 6.63 26.3 26.3 0 0 1-10.5 1.78q-7.92 0-12.47-4.75t-4.55-13.36q0-9 6.23-13.33t18.1-5l9.4-.3V41q0-6.9-6.8-6.9-6.1 0-15.6 4.16L237 25.53q9.8-5 24.74-5 10.8 0 16.7 5.34t5.9 14.94v36.8zm-14.4-12.67a8.73 8.73 0 0 0 6-2.23 7.4 7.4 0 0 0 2.5-5.8V52.5l-4.45.2q-9.55.35-9.55 7 0 5.17 5.5 5.17zm74.77-44.4a28 28 0 0 1 4.8.4l1.1.2-1.74 18.27a28.46 28.46 0 0 0-6.58-.6q-6.33 0-9.2 2.9T316.87 50v27.54h-19.35V21.47h14.4l3 9h.94a19.37 19.37 0 0 1 6.75-7.2 16.17 16.17 0 0 1 8.8-2.8zm50.27 57.07l-3.7-7.42h-.4a22 22 0 0 1-8 6.63 26.3 26.3 0 0 1-10.5 1.78q-7.92 0-12.47-4.75t-4.55-13.36q0-9 6.23-13.33t18.06-5l9.4-.3V41q0-6.9-6.8-6.9-6.1 0-15.6 4.16l-5.5-12.78q9.8-5 24.8-5 10.8 0 16.7 5.32t5.9 14.9v36.8zM367.3 64.87a8.73 8.73 0 0 0 6-2.23 7.4 7.4 0 0 0 2.5-5.8V52.5l-4.46.2q-9.55.35-9.55 7 0 5.17 5.5 5.17zM427 46a100.87 100.87 0 0 1 6-8.7l12.57-15.84h21.57l-19.5 23.86 20.7 32.2H446.2l-12.26-20.07-6.28 4.8v15.3H408.2v-77h19.46v30.28a104.7 104.7 0 0 1-1.1 15.17zm116.84 31.54V47.06q0-5.7-1.56-8.54a5.22 5.22 0 0 0-4.92-2.85 6.93 6.93 0 0 0-6.53 3.8q-2.08 3.82-2.08 11.93v26.14h-19.4V47.06q0-5.7-1.48-8.54a5 5 0 0 0-4.8-2.85 7 7 0 0 0-6.63 4.06q-2.08 4.06-2.08 13.26v24.5H475V21.4h14.6l2.4 6.93h1.14a14.47 14.47 0 0 1 6.46-5.9 22 22 0 0 1 9.62-2q12.12 0 17 7.37h1.53a15.86 15.86 0 0 1 6.6-5.42 22 22 0 0 1 9.34-2q9.9 0 14.7 5.1t4.7 15.5v36.5zm69.06 0l-3.7-7.42h-.4a22 22 0 0 1-8 6.63 26.32 26.32 0 0 1-10.5 1.78q-7.9 0-12.46-4.75t-4.55-13.36q0-9 6.2-13.33t18-5l9.3-.3V41q0-6.9-6.9-6.9-6.2 0-15.6 4.16L579 25.53q9.8-5 24.74-5 10.8 0 16.7 5.34t5.9 14.94v36.8zm-14.34-12.67a8.73 8.73 0 0 0 6-2.23 7.4 7.4 0 0 0 2.5-5.8V52.5l-4.45.2q-9.5.35-9.5 7 0 5.17 5.5 5.17zm74.77-44.4a28 28 0 0 1 4.8.4l1.1.2-1.74 18.27a28.45 28.45 0 0 0-6.6-.6q-6.4 0-9.2 2.9T658.8 50v27.54h-19.3V21.47h14.4l3 9h.93a19.36 19.36 0 0 1 6.75-7.2 16.16 16.16 0 0 1 8.76-2.8zm50.27 57.07l-3.7-7.42h-.4a22 22 0 0 1-8 6.63 26.32 26.32 0 0 1-10.5 1.77q-7.92 0-12.47-4.75T684 60.42q0-9 6.24-13.33t18.06-5l9.35-.3V41q0-6.9-6.83-6.9-6.14 0-15.6 4.16l-5.58-12.77q9.8-5 24.74-5 10.8 0 16.7 5.3T737 40.7v36.8zm-14.35-12.67a8.73 8.73 0 0 0 6-2.23 7.4 7.4 0 0 0 2.5-5.8V52.5l-4.45.2q-9.55.35-9.55 7 0 5.17 5.5 5.17zM784.4 36h-11.9v41.54h-19.34V36h-7.42v-9.5l7.82-4.75v-.94q0-11 4.53-15.9T772.5 0a42.87 42.87 0 0 1 7.3.6 58.27 58.27 0 0 1 8 2.07l-4.1 12.53a26 26 0 0 0-7-1 3.78 3.78 0 0 0-3.23 1.33 7.52 7.52 0 0 0-1 4.43v1.48h11.92zm44.2 41.54l-3.7-7.42h-.4a22 22 0 0 1-8 6.63 26.32 26.32 0 0 1-10.5 1.77q-7.92 0-12.47-4.75T789 60.42q0-9 6.24-13.33t18.06-5l9.35-.3V41q0-6.9-6.83-6.9-6.14 0-15.6 4.16l-5.58-12.77q9.8-5 24.74-5 10.8 0 16.7 5.3T842 40.7v36.8zm-14.35-12.67a8.73 8.73 0 0 0 6-2.23 7.4 7.4 0 0 0 2.5-5.8V52.5l-4.45.2q-9.55.35-9.55 7 0 5.17 5.5 5.17zM387 135.64a17.7 17.7 0 0 0 2.8-.2 17.9 17.9 0 0 0 2.12-.45v4.1a10 10 0 0 1-2.6.7 19.6 19.6 0 0 1-3.1.3q-10.43 0-10.43-11v-21.4h-5.2V105l5.1-2.25 2.3-7.68h3.1v8.3h10.4v4.23h-10.4v21.15a7.27 7.27 0 0 0 1.5 5 5.36 5.36 0 0 0 4.2 1.7zm36.67 3.83v-23.24q0-4.4-2-6.56t-6.26-2.16q-5.6 0-8.2 3.1t-2.6 10.1v18.8h-5.4v-51h5.5V104a33.64 33.64 0 0 1-.2 4.63h.4a11.1 11.1 0 0 1 4.6-4.1A14.87 14.87 0 0 1 416 103q6.6 0 9.88 3.13t3.3 9.95v23.44zm31.8.66q-8 0-12.57-4.85t-4.6-13.47q0-8.6 4.27-13.8a14.2 14.2 0 0 1 11.5-5.1q6.74 0 10.68 4.5t3.93 11.7v3.5h-24.75q.16 6.4 3.2 9.6t8.54 3.3a28.93 28.93 0 0 0 11.47-2.4v4.9a28.82 28.82 0 0 1-5.46 1.8 30.66 30.66 0 0 1-6.2.6zm-1.47-32.7a8.9 8.9 0 0 0-6.9 2.83 13 13 0 0 0-3 7.8h18.78q0-5.15-2.3-7.88a8.08 8.08 0 0 0-6.58-2.74zM108.7 143.2a3.66 3.66 0 0 1 .93-2.76 3.44 3.44 0 0 1 4.62 0 3.6 3.6 0 0 1 1 2.76 3.65 3.65 0 0 1-1 2.77 3.2 3.2 0 0 1-2.3.9 3.18 3.18 0 0 1-2.3-.9 3.73 3.73 0 0 1-.95-2.76zm6 46.26h-5.5v-36.4h5.5zm36.57 0v-23.54q0-4.45-2-6.64t-6.34-2.2q-5.7 0-8.37 3.1t-2.66 10.2v19.08h-5.5v-36.4h4.47l.9 5h.23a11.26 11.26 0 0 1 4.75-4.16 15.44 15.44 0 0 1 6.8-1.48q6.58 0 9.9 3.17t3.33 10.1v23.7zm28.6-3.88a17.94 17.94 0 0 0 2.8-.22 18.15 18.15 0 0 0 2.17-.45v4.3a10.08 10.08 0 0 1-2.64.7 19.9 19.9 0 0 1-3.14.3q-10.56 0-10.56-11.1v-21.7h-5.2v-2.6l5.2-2.3 2.32-7.7H174v8.4h10.56v4.3H174v21.4a7.36 7.36 0 0 0 1.56 5 5.43 5.43 0 0 0 4.3 1.8zm27.6 4.55q-8.06 0-12.72-4.92t-4.67-13.6q0-8.8 4.33-14a14.4 14.4 0 0 1 11.7-5.2q6.9 0 10.8 4.5t4 11.9v3.5h-25.1q.2 6.4 3.2 9.8t8.7 3.4a29.3 29.3 0 0 0 11.6-2.4v4.9a29.2 29.2 0 0 1-5.5 1.8 31.08 31.08 0 0 1-6.2.6zM206 157a9 9 0 0 0-7 2.86 13.16 13.16 0 0 0-3.07 7.9h19q0-5.2-2.32-8A8.18 8.18 0 0 0 206 157zm40.87-4.6a21.57 21.57 0 0 1 4.35.4l-.76 5.12a18.78 18.78 0 0 0-4-.5 9.7 9.7 0 0 0-7.55 3.6 13.08 13.08 0 0 0-3.1 8.92v19.52h-5.5v-36.4h4.6l.7 6.75h.3a16 16 0 0 1 4.9-5.4 11 11 0 0 1 6.3-1.9zm33.53 37.06l-1.1-5.18h-.3a15.3 15.3 0 0 1-5.43 4.63 16.56 16.56 0 0 1-6.76 1.3q-5.4 0-8.4-2.8t-3-7.9q0-11 17.7-11.5l6.2-.2v-2.2q0-4.2-1.8-6.3t-5.9-2a24 24 0 0 0-10.2 2.8l-1.7-4.2a25.9 25.9 0 0 1 5.9-2.2 25.56 25.56 0 0 1 6.5-.8q6.5 0 9.7 2.9t3.2 9.3V190zm-12.4-3.88q5.15 0 8.1-2.82t2.93-7.9v-3.3l-5.5.24q-6.58.23-9.5 2a6.16 6.16 0 0 0-2.9 5.63 5.68 5.68 0 0 0 1.8 4.55 7.5 7.5 0 0 0 5.07 1.6zm42.4 4.55q-7.9 0-12.25-4.87t-4.33-13.76q0-9.13 4.4-14.1t12.54-5a24.9 24.9 0 0 1 5.24.6 17.33 17.33 0 0 1 4.12 1.33l-1.7 4.67a26 26 0 0 0-4-1.2 17.8 17.8 0 0 0-3.82-.5q-11.1 0-11.1 14.16 0 6.7 2.72 10.3t8 3.58a24.5 24.5 0 0 0 9.33-2v4.88a19.9 19.9 0 0 1-9.16 1.9zm29.6-4.55a17.94 17.94 0 0 0 2.82-.22 18.15 18.15 0 0 0 2.16-.45v4.3a10.08 10.08 0 0 1-2.64.7 19.9 19.9 0 0 1-3.14.3q-10.56 0-10.56-11.1v-21.7h-5.24v-2.6l5.2-2.3 2.33-7.7h3.2v8.4h10.55v4.3h-10.55v21.4a7.36 7.36 0 0 0 1.56 5 5.43 5.43 0 0 0 4.3 1.8zm11.76-42.38a3.66 3.66 0 0 1 .93-2.76 3.44 3.44 0 0 1 4.6 0 3.6 3.6 0 0 1 1 2.76 3.65 3.65 0 0 1-1 2.77 3.2 3.2 0 0 1-2.3.9 3.18 3.18 0 0 1-2.3-.9 3.73 3.73 0 0 1-1-2.76zm6 46.26h-5.5v-36.4h5.5zm43.08-18.23q0 8.9-4.48 13.9t-12.4 5a16.4 16.4 0 0 1-8.66-2.3 15.12 15.12 0 0 1-5.84-6.57 22.9 22.9 0 0 1-2.06-10q0-8.9 4.45-13.86t12.35-5q7.64 0 12.14 5.08t4.5 13.75zm-27.73 0q0 7 2.8 10.63t8.2 3.65q5.4 0 8.3-3.6t2.8-10.6q0-6.9-2.8-10.5t-8.3-3.6q-5.4 0-8.1 3.6t-2.7 10.6zm62.3 18.23v-23.54q0-4.45-2-6.64t-6.4-2.2q-5.7 0-8.3 3.1t-2.6 10.2v19.08h-5.5v-36.4h4.5l.9 5h.3a11.26 11.26 0 0 1 4.8-4.16 15.44 15.44 0 0 1 6.8-1.48q6.6 0 9.9 3.17t3.4 10.1v23.7zm59.3-4.88h-.3q-3.8 5.55-11.4 5.55-7.1 0-11.1-4.88t-4-13.88q0-9 4-14t11.1-5q7.4 0 11.4 5.38h.5l-.2-2.62-.1-2.56V137.8h5.5v51.67h-4.4zm-11 .93q5.7 0 8.2-3t2.6-9.9v-1.1q0-7.7-2.5-11t-8.2-3.3a8.43 8.43 0 0 0-7.4 3.8q-2.5 3.8-2.5 10.7t2.5 10.5a8.66 8.66 0 0 0 7.5 3.5zm43.3 4.7q-8 0-12.7-4.9t-4.6-13.6q0-8.8 4.4-14a14.4 14.4 0 0 1 11.7-5.2q6.9 0 10.9 4.5t4 11.9v3.5h-25.2q.2 6.4 3.3 9.8t8.7 3.3a29.3 29.3 0 0 0 11.6-2.4v4.9a29.2 29.2 0 0 1-5.5 1.8 31.08 31.08 0 0 1-6.3.6zm-1.5-33.2a9 9 0 0 0-7 2.9 13.16 13.16 0 0 0-3 7.9h19q0-5.2-2.3-8a8.18 8.18 0 0 0-6.6-2.7zm47.8 22.6a9.12 9.12 0 0 1-3.7 7.9q-3.8 2.8-10.6 2.8-7.2 0-11.3-2.3v-5.1a27.26 27.26 0 0 0 5.6 2.1 23.47 23.47 0 0 0 5.8.8 13.14 13.14 0 0 0 6.7-1.4 4.74 4.74 0 0 0 .5-7.9 29 29 0 0 0-7.2-3.5 39 39 0 0 1-7.2-3.3 9.86 9.86 0 0 1-3.2-3.2 8.36 8.36 0 0 1-1-4.3 8.16 8.16 0 0 1 3.7-7q3.6-2.5 9.9-2.5a29 29 0 0 1 11.5 2.4l-2 4.5a26.4 26.4 0 0 0-9.9-2.2 11.42 11.42 0 0 0-5.9 1.2 3.8 3.8 0 0 0-2 3.4 4.12 4.12 0 0 0 .8 2.5 7.36 7.36 0 0 0 2.4 2 53.63 53.63 0 0 0 6.4 2.7q6.5 2.4 8.8 4.8a8.38 8.38 0 0 1 2.3 5.97zm8.5-36.3a3.66 3.66 0 0 1 1-2.7 3.44 3.44 0 0 1 4.6 0 3.6 3.6 0 0 1 1 2.8 3.65 3.65 0 0 1-1 2.8 3.22 3.22 0 0 1-2.3.9 3.18 3.18 0 0 1-2.3-.9 3.73 3.73 0 0 1-.9-2.7zm6 46.3h-5.5v-36.4h5.5zm41.5-36.4v3.5l-6.7.8a11.84 11.84 0 0 1 2.4 7.3 10.76 10.76 0 0 1-3.6 8.6q-3.6 3.2-10 3.2a16.63 16.63 0 0 1-3-.3q-3.5 1.9-3.5 4.7a2.38 2.38 0 0 0 1.3 2.2 9 9 0 0 0 4.2.7h6.5q5.9 0 9.1 2.5a8.65 8.65 0 0 1 3.2 7.2 10.34 10.34 0 0 1-4.84 9.3q-4.9 3.2-14.2 3.2-7.14 0-11-2.6a8.58 8.58 0 0 1-3.87-7.5 8.42 8.42 0 0 1 2.1-5.7 10.82 10.82 0 0 1 6-3.3 5.77 5.77 0 0 1-2.38-2 5.18 5.18 0 0 1-.96-3.04 5.86 5.86 0 0 1 1.02-3.5 11.18 11.18 0 0 1 3.35-2.9 9.83 9.83 0 0 1-4.6-4 11.6 11.6 0 0 1-1.8-6.4q0-6 3.6-9.2t10.2-3.24a18.5 18.5 0 0 1 5.14.67zm-29 42.5a4.94 4.94 0 0 0 2.5 4.5 13.74 13.74 0 0 0 7.2 1.5q6.9 0 10.3-2.1a6.35 6.35 0 0 0 3.4-5.6q0-3-1.8-4.1t-6.8-1.1h-6.6a8.7 8.7 0 0 0-5.8 1.8 6.4 6.4 0 0 0-2.1 5.2zm3-30.8a7.4 7.4 0 0 0 2.2 5.8 8.62 8.62 0 0 0 6 2q8.1 0 8.1-7.8 0-8.2-8.2-8.2a8.1 8.1 0 0 0-6 2.1q-2.1 2.1-2.1 6.2zm58.4 24.8V166q0-4.45-2-6.64t-6.3-2.2q-5.7 0-8.4 3.1t-2.6 10.2v19.08h-5.5v-36.4h4.5l.9 5h.3a11.25 11.25 0 0 1 4.8-4.14 15.44 15.44 0 0 1 6.8-1.47q6.6 0 9.9 3.17t3.3 10.1v23.7zm32.2.7q-8 0-12.7-4.9t-4.6-13.6q0-8.8 4.4-14a14.4 14.4 0 0 1 11.6-5.2q6.9 0 10.9 4.5t4 11.9v3.5h-25.1q.2 6.4 3.3 9.7t8.7 3.3a29.3 29.3 0 0 0 11.6-2.4v4.9a29.2 29.2 0 0 1-5.5 1.8 31.08 31.08 0 0 1-6.3.6zm-1.6-33.2a9 9 0 0 0-7 2.9 13.16 13.16 0 0 0-3 7.9h19q0-5.2-2.3-8a8.18 8.18 0 0 0-6.6-2.7zm40.9-4.6a21.58 21.58 0 0 1 4.4.4l-.7 5.2a18.8 18.8 0 0 0-4-.5 9.7 9.7 0 0 0-7.5 3.6 13.08 13.08 0 0 0-3.1 9v19.5h-5.5v-36.4h4.6l.6 6.7h.3a16 16 0 0 1 4.9-5.4 11 11 0 0 1 6.2-1.9zM62.8 112.8h292.5v10H62.8zm423.8 0h292.5v10H486.6z" data-name="Layer 2"/>
</svg>
