<svg class="tldr_logo" xmlns="http://www.w3.org/2000/svg" viewBox="0 0 71 162.5">
  <defs>
    <style>
      .cls-2{fill:#2d99f9;}
    </style>
  </defs>
  <g id="Layer_2" data-name="Layer 2">
    <g id="Layer_2-2" data-name="Layer 2">
      <path class="cls-1" d="M52 33a3.21 3.21 0 0 0 1 .75 2.88 2.88 0 0 0 1.25.27 3.07 3.07 0 0 0 1.3-.29 4.11 4.11 0 0 0 2-2 3.8 3.8 0 0 0 .45-1.44v-.2a3.89 3.89 0 0 0-1-2.51 3 3 0 0 0-2.34-1 3.23 3.23 0 0 0-1.35.3 3.87 3.87 0 0 0-1.18.84 4 4 0 0 0-.78 1.28 3.79 3.79 0 0 0-.3 1.51A3.74 3.74 0 0 0 52 33zM37.15 16.75l-.1.56-.14.81q-.09.48-.2 1.25-.36 2.54-.71 5.63t-.72 6.27q-.36 3.21-.69 6.4t-.58 6q-.24 2.84-.39 5.11t-.14 3.66a6.12 6.12 0 0 0 1.08 4 4.48 4.48 0 0 0 3.64 1.31 5.45 5.45 0 0 0 3.11-.91 8.93 8.93 0 0 0 2.29-2.2 12.44 12.44 0 0 0 1.5-2.72 14.5 14.5 0 0 0 .76-2.46l-1.7-.46a14.63 14.63 0 0 1-1 2.68 9.29 9.29 0 0 1-1.11 1.77 3.88 3.88 0 0 1-1.14 1 2.29 2.29 0 0 1-1 .3 1.38 1.38 0 0 1-.91-.27 1.61 1.61 0 0 1-.49-.71 3.7 3.7 0 0 1-.2-1v-1.14q0-1.41.13-3.54t.33-4.68q.2-2.55.48-5.35t.56-5.56c.19-1.84.39-3.63.59-5.35s.39-3.28.56-4.67c.08-.65.18-1.44.32-2.29s.27-1.79.42-2.7.29-1.92.45-2.82.29-1.68.4-2.68h-1.7c-.23 1-.51.67-.83.86a5 5 0 0 1-1.33.76 14.26 14.26 0 0 1-2.12.35q-1.28.13-3.21.13L33 16.44l4.21-.23zM14.23 36.13q-.29 3-.47 5.7t-.29 4.95q-.1 2.26-.1 3.94a10.88 10.88 0 0 0 .32 2.65 6.34 6.34 0 0 0 1 2.24 4.89 4.89 0 0 0 1.89 1.53 6.76 6.76 0 0 0 2.91.56 8.23 8.23 0 0 0 2.59-.39 7.48 7.48 0 0 0 2.2-1.17 11 11 0 0 0 1.93-1.92A20.31 20.31 0 0 0 28 51.55l-1.53-1a11.84 11.84 0 0 1-1.64 2.25 7.27 7.27 0 0 1-1.54 1.2 4.41 4.41 0 0 1-1.34.54 5.66 5.66 0 0 1-1 .12 2.25 2.25 0 0 1-1.53-.48 2.91 2.91 0 0 1-.85-1.18 6.25 6.25 0 0 1-.35-1.66c0-.61-.07-1.19-.07-1.77 0-1.31.06-2.75.17-4.35s.25-3.24.42-5 .35-3.44.55-5.2.39-3.41.56-5.07h9.45l.17-2h-9.39l1.07-9H18.9a12.83 12.83 0 0 1-3.3 6.27 7.84 7.84 0 0 1-5.78 2.26L9.65 30l5.24-.06q-.37 3.18-.66 6.19zm4.35 67.95a7.82 7.82 0 0 0 2.87-1.87 16.34 16.34 0 0 0 2.84-3.83 67.15 67.15 0 0 0 2.6-6.38h.17a25.91 25.91 0 0 0-.68 3.86 26.66 26.66 0 0 0-.22 3.34 8.56 8.56 0 0 0 .26 2.19 4.38 4.38 0 0 0 .82 1.67 3.85 3.85 0 0 0 1.41 1.08 4.92 4.92 0 0 0 2.06.39 5.38 5.38 0 0 0 3.1-.91 9.12 9.12 0 0 0 2.29-2.22 12.38 12.38 0 0 0 1.51-2.74 14.52 14.52 0 0 0 .76-2.46l-1.73-.37a15.45 15.45 0 0 1-1 2.67 8.83 8.83 0 0 1-1.09 1.76 4 4 0 0 1-1.12 1 2.24 2.24 0 0 1-1.05.3 1.32 1.32 0 0 1-.89-.27 1.66 1.66 0 0 1-.47-.71 3.34 3.34 0 0 1-.19-1v-1.14q0-1.58.14-3.81t.37-4.82q.23-2.59.55-5.44c.21-1.9.42-3.8.63-5.68l1.07-9.22c.08-.65.17-1.43.27-2.3s.23-1.8.36-2.72.27-1.92.4-2.82S34.9 60 35 59h-1.7c-.23 1-.51.59-.83.79a5 5 0 0 1-1.33.68 14.16 14.16 0 0 1-2.12.35q-1.28.13-3.21.13l-.23 2.33 4.29-.23a17.1 17.1 0 0 0-.37 1.69q-.14.85-.29 1.92-.29 2.07-.49 3.88T28.36 74a20.86 20.86 0 0 0-3.36-.29 18 18 0 0 0-7.47 1.46 14.86 14.86 0 0 0-5.37 4A17.32 17.32 0 0 0 9 85.41a27.51 27.51 0 0 0-1.08 7.92 19.11 19.11 0 0 0 .48 4.37 11.1 11.1 0 0 0 1.47 3.56 7.47 7.47 0 0 0 2.49 2.41 6.89 6.89 0 0 0 3.54.89 8.1 8.1 0 0 0 2.68-.48zm-4.71-5a13 13 0 0 1-.71-3 30.17 30.17 0 0 1-.16-3.79 29.58 29.58 0 0 1 .25-3.72 24.27 24.27 0 0 1 .75-3.75 18.16 18.16 0 0 1 1.4-3.46 11.72 11.72 0 0 1 2.1-2.85 9.54 9.54 0 0 1 2.87-1.94 9.07 9.07 0 0 1 3.7-.72 16 16 0 0 1 2 .13 11 11 0 0 1 2 .45q-.37 3.31-.71 5.82t-.79 4.58a38.21 38.21 0 0 1-1.67 5.6 29.41 29.41 0 0 1-2.3 4.77 14.41 14.41 0 0 1-2.69 3.33 4.31 4.31 0 0 1-2.81 1.25 2.78 2.78 0 0 1-1.94-.72A5.11 5.11 0 0 1 13.87 99zm37.41-42.63a2.7 2.7 0 0 0 .82.6 2.36 2.36 0 0 0 1.05.23 4 4 0 0 0 .66-.06c.23 0 .47-.21.72-.21h.09a14.86 14.86 0 0 1-.32 3.12 17.23 17.23 0 0 1-.81 2.53 17 17 0 0 1-1.07 2.17 9.82 9.82 0 0 1-1.09 1.56l1.47 1.18a18.39 18.39 0 0 0 2.12-3 23.09 23.09 0 0 0 1.51-3.15 19.43 19.43 0 0 0 .91-3 12.7 12.7 0 0 0 .3-2.55 5.38 5.38 0 0 0-1-3.36 3.31 3.31 0 0 0-2.79-1.28 3.7 3.7 0 0 0-1.28.22 3.18 3.18 0 0 0-1.05.63 2.88 2.88 0 0 0-.72 1 3.67 3.67 0 0 0-.26 1.43 2.9 2.9 0 0 0 .19 1 2.62 2.62 0 0 0 .55.94zm12.87 18.2a4.14 4.14 0 0 0-1.31-.65 5.27 5.27 0 0 0-1.64-.23 7.75 7.75 0 0 0-2.88.6 8.5 8.5 0 0 0-2.84 2.08 19.29 19.29 0 0 0-2.75 4A30.29 30.29 0 0 0 50.08 87h-.17c.27-2 .48-2.82.63-4a29.37 29.37 0 0 0 .23-3.53 11.89 11.89 0 0 0-.22-2.36 5 5 0 0 0-.72-1.81 3.34 3.34 0 0 0-1.34-1.15 4.68 4.68 0 0 0-2-.4 5.39 5.39 0 0 0-3.1.91 9.14 9.14 0 0 0-2.29 2.22 12.4 12.4 0 0 0-1.51 2.74 14.5 14.5 0 0 0-.8 2.38l1.64.35a14.69 14.69 0 0 1 1-2.64A8.37 8.37 0 0 1 42.55 78a4.28 4.28 0 0 1 1.15-1 2.24 2.24 0 0 1 1.05-.3 1.46 1.46 0 0 1 .84.22 1.42 1.42 0 0 1 .49.59 2.8 2.8 0 0 1 .23.83 8 8 0 0 1 .06 1v.81c0 .23 0 .49-.06.79s-.07.66-.13 1.09-.13 1-.22 1.71-.19 1.59-.3 2.65-.26 2.35-.43 3.89q-.35 3.11-.53 5.2c-.12 1.39-.22 2.56-.27 3.5s-.09 1.74-.1 2.36 0 1.23 0 1.74c0 .15 0-.07.06.93h4.9a6.93 6.93 0 0 1-.09-.71c0-.18-.07-.43-.08-.61s-.08-.38-.08-.59v-.75a35.26 35.26 0 0 1 .45-5 52.15 52.15 0 0 1 1.13-5.33 45.87 45.87 0 0 1 1.63-5.14 28.58 28.58 0 0 1 2.05-4.38 14.27 14.27 0 0 1 2.39-3.14A4.2 4.2 0 0 1 59.27 77h.3c.11 0 .22.25.33.29a3.26 3.26 0 0 0 .89 2.06 2.79 2.79 0 0 0 1.84.62 2.56 2.56 0 0 0 1.14-.25 2.69 2.69 0 0 0 .85-.63 2.76 2.76 0 0 0 .53-.91 3 3 0 0 0 .19-1 3.11 3.11 0 0 0-.34-1.45 3.2 3.2 0 0 0-.85-1.08z"/>
      <path class="cls-2" d="M0 0v127l35 35.5L71 127V0zm51.35 29a4 4 0 0 1 .82-1.24 3.87 3.87 0 0 1 1.18-.84 3.23 3.23 0 0 1 1.35-.3 3 3 0 0 1 2.34 1 3.89 3.89 0 0 1 1 2.51v.2a3.8 3.8 0 0 1-.45 1.47 4.11 4.11 0 0 1-2 2 3.07 3.07 0 0 1-1.3.29 2.88 2.88 0 0 1-1.29-.36 3.21 3.21 0 0 1-1-.73 3.74 3.74 0 0 1-1-2.52 3.79 3.79 0 0 1 .35-1.48zm-.53 24.17a2.88 2.88 0 0 1 .72-1 3.18 3.18 0 0 1 1.05-.63 3.7 3.7 0 0 1 1.28-.22 3.31 3.31 0 0 1 2.79 1.28 5.38 5.38 0 0 1 1 3.36 12.7 12.7 0 0 1-.3 2.55 19.43 19.43 0 0 1-.91 3 23.09 23.09 0 0 1-1.51 3.15 18.39 18.39 0 0 1-2.12 3l-1.47-1.18a9.82 9.82 0 0 0 1.09-1.56 17 17 0 0 0 1.07-2.17 17.23 17.23 0 0 0 .81-2.53 14.86 14.86 0 0 0 .3-3.22h-.09c-.25 0-.49.17-.72.21a4 4 0 0 1-.66.06A2.36 2.36 0 0 1 52.1 57a2.7 2.7 0 0 1-.82-.6 2.62 2.62 0 0 1-.53-.88 2.9 2.9 0 0 1-.19-1 3.67 3.67 0 0 1 .26-1.4zM33.3 14.1q1.93 0 3.21-.13a14.26 14.26 0 0 0 2.12-.35 5 5 0 0 0 1.37-.76c.33-.2.6.14.83-.86h1.7c-.12 1-.25 1.79-.4 2.68s-.3 1.91-.45 2.82-.28 1.84-.42 2.7-.24 1.64-.32 2.29c-.17 1.38-.36 2.95-.56 4.67s-.4 3.51-.59 5.35-.38 3.7-.56 5.56-.34 3.65-.48 5.35-.25 3.26-.33 4.68-.13 2.6-.13 3.54v1.14a3.7 3.7 0 0 0 .2 1 1.61 1.61 0 0 0 .49.71 1.38 1.38 0 0 0 .91.27 2.29 2.29 0 0 0 1-.3 3.88 3.88 0 0 0 1.14-1 9.29 9.29 0 0 0 1.11-1.77 14.63 14.63 0 0 0 1-2.68l1.7.37a14.5 14.5 0 0 1-.76 2.46 12.44 12.44 0 0 1-1.5 2.72 8.93 8.93 0 0 1-2.29 2.2 5.45 5.45 0 0 1-3.11.91 4.48 4.48 0 0 1-3.64-1.31 6.12 6.12 0 0 1-1.08-4q0-1.38.14-3.66t.4-5.06q.24-2.84.58-6t.69-6.4Q35.63 28 36 25t.71-5.59q.12-.78.2-1.25l.14-.81.1-.56.1-.55-4.25.2zM9.82 27.53a7.84 7.84 0 0 0 5.78-2.26A12.83 12.83 0 0 0 18.9 19h2.25l-1.07 9h9.39l-.17 2h-9.45c-.17 1.66-.36 3.3-.56 5.07s-.38 3.47-.55 5.2-.3 3.37-.42 5-.17 3-.17 4.35c0 .58 0 1.17.07 1.77a6.25 6.25 0 0 0 .35 1.61 2.91 2.91 0 0 0 .82 1.23 2.25 2.25 0 0 0 1.53.48 5.66 5.66 0 0 0 1-.12 4.41 4.41 0 0 0 1.37-.59 7.27 7.27 0 0 0 1.54-1.25 11.84 11.84 0 0 0 1.64-2.25l1.53 1a20.31 20.31 0 0 1-1.77 2.66 11 11 0 0 1-1.93 1.92 7.48 7.48 0 0 1-2.2 1.17 8.23 8.23 0 0 1-2.59.39 6.76 6.76 0 0 1-2.91-.56 4.89 4.89 0 0 1-1.89-1.53 6.34 6.34 0 0 1-1-2.24 10.88 10.88 0 0 1-.32-2.65q0-1.67.1-3.94t.29-4.95q.19-2.68.47-5.7t.66-6.21L9.65 30zm0 73.73a11.1 11.1 0 0 1-1.46-3.56 19.11 19.11 0 0 1-.48-4.37A27.51 27.51 0 0 1 9 85.41a17.32 17.32 0 0 1 3.24-6.19 14.86 14.86 0 0 1 5.37-4A18 18 0 0 1 25 73.71a20.86 20.86 0 0 1 3.31.26q.17-1.64.37-3.44t.49-3.87q.15-1.06.29-1.92a17.1 17.1 0 0 1 .38-1.69l-4.29.23.28-2.28q1.93 0 3.21-.13a14.16 14.16 0 0 0 2.12-.35 5 5 0 0 0 1.33-.68c.33-.2.6.21.83-.79H35c-.12 1-.24 1.71-.37 2.62s-.27 1.9-.4 2.82-.25 1.86-.36 2.72-.2 1.64-.27 2.3l-1.07 9.22c-.21 1.88-.42 3.78-.63 5.68s-.39 3.72-.55 5.44-.28 3.34-.37 4.82-.14 2.76-.14 3.81v1.14a3.34 3.34 0 0 0 .19 1 1.66 1.66 0 0 0 .47.71 1.32 1.32 0 0 0 .89.27 2.24 2.24 0 0 0 1.05-.3 4 4 0 0 0 1.12-1 8.83 8.83 0 0 0 1.09-1.76 15.45 15.45 0 0 0 1-2.67l1.73.38a14.52 14.52 0 0 1-.76 2.46 12.38 12.38 0 0 1-1.51 2.74 9.12 9.12 0 0 1-2.29 2.22 5.38 5.38 0 0 1-3.1.91 4.92 4.92 0 0 1-2.06-.39 3.85 3.85 0 0 1-1.41-1.08 4.38 4.38 0 0 1-.82-1.67 8.56 8.56 0 0 1-.26-2.19 26.66 26.66 0 0 1 .22-3.34 25.91 25.91 0 0 1 .68-3.91h-.17a67.15 67.15 0 0 1-2.61 6.38 16.34 16.34 0 0 1-2.84 3.83 7.82 7.82 0 0 1-2.87 1.87 8.1 8.1 0 0 1-2.72.48 6.89 6.89 0 0 1-3.54-.89 7.47 7.47 0 0 1-2.49-2.41zm46.84 30.49l-21.7 22-21.6-22a2.06 2.06 0 1 1 2.94-2.88l18.67 19 18.77-19a2.06 2.06 0 0 1 2.93 2.89zm8.5-53.57a2.76 2.76 0 0 1-.53.91 2.69 2.69 0 0 1-.85.63 2.56 2.56 0 0 1-1.14.25 2.79 2.79 0 0 1-1.84-.62 3.26 3.26 0 0 1-.89-2.06c-.12 0-.23-.29-.33-.29h-.3a4.2 4.2 0 0 0-2.58 1.37 14.27 14.27 0 0 0-2.4 3.13 28.58 28.58 0 0 0-2.09 4.41 45.87 45.87 0 0 0-1.63 5.14 52.15 52.15 0 0 0-1.13 5.33 35.26 35.26 0 0 0-.45 5v.75c0 .21.07.41.08.59s.06.43.08.61a6.93 6.93 0 0 0 .09.71h-4.9c0-1-.06-.77-.06-.93v-1.74s0-1.42.1-2.36.15-2.11.27-3.5.3-3.13.53-5.2q.26-2.3.43-3.89t.3-2.65q.13-1.06.22-1.71c.06-.43.1-.8.13-1.09s0-.56.06-.79 0-.5 0-.81a8 8 0 0 0-.06-1 2.8 2.8 0 0 0-.23-.83 1.42 1.42 0 0 0-.49-.59 1.46 1.46 0 0 0-.84-.22 2.24 2.24 0 0 0-1.05.3 4.28 4.28 0 0 0-1.15 1 8.37 8.37 0 0 0-1.14 1.76 14.69 14.69 0 0 0-1 2.64L38.79 82a14.5 14.5 0 0 1 .76-2.46 12.4 12.4 0 0 1 1.51-2.74 9.14 9.14 0 0 1 2.29-2.22 5.39 5.39 0 0 1 3.1-.91 4.68 4.68 0 0 1 2 .4 3.34 3.34 0 0 1 1.34 1.15 5 5 0 0 1 .72 1.81 11.89 11.89 0 0 1 .22 2.36 29.37 29.37 0 0 1-.19 3.61c-.15 1.2-.36 2-.63 4h.17a30.29 30.29 0 0 1 2.65-6.53 19.29 19.29 0 0 1 2.75-4 8.5 8.5 0 0 1 2.84-2.08 7.75 7.75 0 0 1 2.88-.6 5.27 5.27 0 0 1 1.64.23 4.14 4.14 0 0 1 1.31.68 3.2 3.2 0 0 1 .85 1.03 3.11 3.11 0 0 1 .32 1.41 3 3 0 0 1-.16 1.04z"/>
      <path class="cls-2" d="M19.91 100.52a14.41 14.41 0 0 0 2.69-3.33 29.41 29.41 0 0 0 2.3-4.77 38.21 38.21 0 0 0 1.67-5.6q.46-2.07.79-4.58t.71-5.82a11 11 0 0 0-2-.45 16 16 0 0 0-2-.13 9.07 9.07 0 0 0-3.7.72 9.54 9.54 0 0 0-2.87 1.94 11.72 11.72 0 0 0-2.1 2.85 18.16 18.16 0 0 0-1.4 3.47 24.27 24.27 0 0 0-.78 3.76 29.58 29.58 0 0 0-.22 3.71 30.17 30.17 0 0 0 .17 3.71 13 13 0 0 0 .71 3 5.11 5.11 0 0 0 1.28 2 2.78 2.78 0 0 0 1.94.72 4.31 4.31 0 0 0 2.81-1.2z"/>
    </g>
  </g>
</svg>
