<svg class="tldr_logo"  xmlns="http://www.w3.org/2000/svg" viewBox="0 0 114.59 184.3">
  <g id="Layer_2" data-name="Layer 2">
    <g id="Layer_2-2" data-name="Layer 2">
      <path class="cls-1" d="M92.88 127V0h-71v127H0l57.3 57.3 57.3-57.3zM73.23 29a4 4 0 0 1 .77-1.29 3.87 3.87 0 0 1 1.18-.84 3.23 3.23 0 0 1 1.35-.3 3 3 0 0 1 2.34 1 3.89 3.89 0 0 1 1 2.51v.2a3.8 3.8 0 0 1-.45 1.47 4.11 4.11 0 0 1-2 2 3.07 3.07 0 0 1-1.3.29 2.88 2.88 0 0 1-1.25-.27 3.21 3.21 0 0 1-1-.75 3.74 3.74 0 0 1-1-2.52 3.79 3.79 0 0 1 .36-1.5zm-.53 24.17a2.88 2.88 0 0 1 .72-1 3.18 3.18 0 0 1 1.05-.63 3.7 3.7 0 0 1 1.28-.22 3.31 3.31 0 0 1 2.79 1.28 5.38 5.38 0 0 1 1 3.36 12.7 12.7 0 0 1-.3 2.55 19.43 19.43 0 0 1-.91 3 23.09 23.09 0 0 1-1.53 3.09 18.39 18.39 0 0 1-2.12 3l-1.47-1.18a9.82 9.82 0 0 0 1.09-1.56 17 17 0 0 0 1.07-2.17 17.23 17.23 0 0 0 .81-2.53A14.86 14.86 0 0 0 76.5 57h-.09c-.25 0-.49.17-.72.21a4 4 0 0 1-.66.06A2.36 2.36 0 0 1 74 57a2.7 2.7 0 0 1-.82-.6 2.62 2.62 0 0 1-.53-.88 2.9 2.9 0 0 1-.19-1 3.67 3.67 0 0 1 .23-1.4zm-17.51-39q1.93 0 3.21-.13a14.26 14.26 0 0 0 2.12-.35 5 5 0 0 0 1.33-.76c.33-.2.6.14.83-.86h1.7c-.12 1-.25 1.79-.4 2.68s-.3 1.91-.45 2.82-.28 1.84-.42 2.7-.24 1.64-.32 2.29c-.17 1.38-.36 2.95-.56 4.67s-.4 3.51-.59 5.35-.38 3.7-.56 5.56-.34 3.65-.48 5.35-.25 3.26-.33 4.68-.13 2.6-.13 3.54v1.14a3.7 3.7 0 0 0 .2 1 1.61 1.61 0 0 0 .49.71 1.38 1.38 0 0 0 .91.27 2.29 2.29 0 0 0 1-.3 3.88 3.88 0 0 0 1.14-1 9.29 9.29 0 0 0 1.11-1.77A14.63 14.63 0 0 0 66 49l1.7.37a14.5 14.5 0 0 1-.7 2.48 12.44 12.44 0 0 1-1.5 2.72 8.93 8.93 0 0 1-2.29 2.2 5.45 5.45 0 0 1-3.11.91 4.48 4.48 0 0 1-3.64-1.31 6.12 6.12 0 0 1-1.08-4q0-1.38.14-3.66t.39-5.11q.24-2.84.58-6t.69-6.4q.36-3.21.72-6.27t.71-5.59q.12-.78.2-1.25l.14-.81.1-.56.1-.55-4.21.23zM31.7 27.53a7.84 7.84 0 0 0 5.78-2.26 12.83 12.83 0 0 0 3.3-6.27H43l-1 9h9.39l-.17 2h-9.45c-.17 1.66-.36 3.3-.56 5.07s-.38 3.47-.55 5.2-.3 3.37-.42 5-.17 3-.17 4.35c0 .58 0 1.17.07 1.77a6.25 6.25 0 0 0 .31 1.61 2.91 2.91 0 0 0 .82 1.23 2.25 2.25 0 0 0 1.53.48 5.66 5.66 0 0 0 1-.12 4.41 4.41 0 0 0 1.37-.59 7.27 7.27 0 0 0 1.54-1.25 11.84 11.84 0 0 0 1.64-2.25l1.53 1a20.31 20.31 0 0 1-1.77 2.66 11 11 0 0 1-1.93 1.92A7.48 7.48 0 0 1 44 57.3a8.23 8.23 0 0 1-2.59.39 6.76 6.76 0 0 1-2.91-.56 4.89 4.89 0 0 1-1.89-1.53 6.34 6.34 0 0 1-1-2.24 10.88 10.88 0 0 1-.32-2.65q0-1.67.1-3.94t.29-4.95q.19-2.68.47-5.7t.66-6.21l-5.28.09zm27.8 71.14a12.38 12.38 0 0 1-1.5 2.74 9.12 9.12 0 0 1-2.29 2.22 5.38 5.38 0 0 1-3.1.91 4.92 4.92 0 0 1-2.06-.39 3.85 3.85 0 0 1-1.41-1.08 4.38 4.38 0 0 1-.82-1.67 8.56 8.56 0 0 1-.26-2.19 26.66 26.66 0 0 1 .22-3.34 25.91 25.91 0 0 1 .66-3.87h-.17a67.15 67.15 0 0 1-2.61 6.38 16.34 16.34 0 0 1-2.84 3.83 7.82 7.82 0 0 1-2.87 1.87 8.1 8.1 0 0 1-2.72.48 6.89 6.89 0 0 1-3.54-.89 7.47 7.47 0 0 1-2.49-2.41 11.1 11.1 0 0 1-1.47-3.56 19.11 19.11 0 0 1-.48-4.37 27.51 27.51 0 0 1 1.08-7.92 17.32 17.32 0 0 1 3.24-6.19 14.86 14.86 0 0 1 5.37-4 18 18 0 0 1 7.47-1.46 20.86 20.86 0 0 1 3.31.26q.17-1.64.37-3.44t.49-3.88q.15-1.06.29-1.92a17.1 17.1 0 0 1 .38-1.69l-4.29.23.25-2.32q1.93 0 3.21-.13a14.16 14.16 0 0 0 2.08-.4 5 5 0 0 0 1.33-.68c.33-.2.6.21.83-.79h1.7c-.12 1-.24 1.71-.37 2.62s-.27 1.9-.4 2.82-.25 1.86-.36 2.72-.2 1.64-.27 2.3l-1.07 9.22c-.21 1.88-.42 3.78-.63 5.68s-.39 3.72-.55 5.44-.28 3.34-.37 4.82-.14 2.76-.14 3.81v1.14a3.34 3.34 0 0 0 .19 1 1.66 1.66 0 0 0 .47.71 1.32 1.32 0 0 0 .89.27 2.24 2.24 0 0 0 1.05-.3 4 4 0 0 0 1.12-1 8.83 8.83 0 0 0 1.09-1.76 15.45 15.45 0 0 0 1-2.67l1.73.38a14.52 14.52 0 0 1-.74 2.47zM87 78.18a2.76 2.76 0 0 1-.53.91 2.69 2.69 0 0 1-.85.63 2.56 2.56 0 0 1-1.14.25 2.79 2.79 0 0 1-1.84-.62 3.26 3.26 0 0 1-.89-2.06c-.12 0-.23-.29-.33-.29h-.3a4.2 4.2 0 0 0-2.58 1.37 14.27 14.27 0 0 0-2.39 3.14 28.58 28.58 0 0 0-2.09 4.41 45.87 45.87 0 0 0-1.63 5.14 52.15 52.15 0 0 0-1.13 5.33 35.26 35.26 0 0 0-.45 5v.75c0 .21.07.41.08.59s.06.43.08.61a6.93 6.93 0 0 0 .09.71h-4.9c0-1-.06-.77-.06-.93v-1.74s0-1.42.1-2.36.15-2.11.27-3.5.3-3.13.53-5.2q.26-2.3.43-3.89t.3-2.65Q68 82.67 68 82c.06-.43.1-.8.13-1.09s0-.56.06-.79 0-.5 0-.81a8 8 0 0 0-.06-1 2.8 2.8 0 0 0-.23-.83 1.42 1.42 0 0 0-.49-.59 1.46 1.46 0 0 0-.84-.22 2.24 2.24 0 0 0-1.05.3 4.28 4.28 0 0 0-1.15 1 8.37 8.37 0 0 0-1.14 1.76 14.69 14.69 0 0 0-1 2.64L60.67 82a14.5 14.5 0 0 1 .76-2.46 12.4 12.4 0 0 1 1.51-2.74 9.14 9.14 0 0 1 2.29-2.22 5.39 5.39 0 0 1 3.1-.91 4.68 4.68 0 0 1 2 .4 3.34 3.34 0 0 1 1.34 1.15 5 5 0 0 1 .72 1.81 11.89 11.89 0 0 1 .22 2.36 29.37 29.37 0 0 1-.19 3.61c-.15 1.2-.36 2-.63 4H72a30.29 30.29 0 0 1 2.65-6.53 19.29 19.29 0 0 1 2.75-4 8.5 8.5 0 0 1 2.84-2.08 7.75 7.75 0 0 1 2.88-.6 5.27 5.27 0 0 1 1.64.23 4.14 4.14 0 0 1 1.31.68 3.2 3.2 0 0 1 .88 1.08 3.11 3.11 0 0 1 .32 1.41 3 3 0 0 1-.27.99z"/>
      <path class="cls-1" d="M45.92 75.84a9.07 9.07 0 0 0-3.7.72 9.54 9.54 0 0 0-2.87 1.94 11.72 11.72 0 0 0-2.1 2.85 18.16 18.16 0 0 0-1.4 3.46 24.27 24.27 0 0 0-.78 3.76 29.58 29.58 0 0 0-.25 3.72A30.17 30.17 0 0 0 35 96a13 13 0 0 0 .71 3 5.11 5.11 0 0 0 1.29 2 2.78 2.78 0 0 0 1.94.72 4.31 4.31 0 0 0 2.81-1.25 14.41 14.41 0 0 0 2.69-3.33 29.41 29.41 0 0 0 2.3-4.77 38.21 38.21 0 0 0 1.67-5.6q.46-2.07.79-4.58t.8-5.77a11 11 0 0 0-2-.45 16 16 0 0 0-2.08-.13z"/>
    </g>
  </g>
</svg>
