<svg class="be_logo" xmlns="http://www.w3.org/2000/svg" viewBox="0 0 154.35 96.23">
  <path d="M0 96.14V0h45.75a41.77 41.77 0 0 1 14.32 2.22C68 5.1 73.3 10.39 75 18.79c1.3 6.32 1.06 12.52-2.31 18.28a18.41 18.41 0 0 1-7 6.5l-1.65.94c1.58.82 3 1.51 4.43 2.33a19.34 19.34 0 0 1 9.26 12.62c2.55 10.75.3 20.37-7.54 28.39a25.26 25.26 0 0 1-15.11 7.33 99.77 99.77 0 0 1-12.36 1c-13.81.12-27.63 0-41.45 0-.33.02-.75-.01-1.27-.04zM22.26 54v25.43c7.71 0 15.31.07 22.91 0a20.35 20.35 0 0 0 5.57-1A10.34 10.34 0 0 0 58 70.42a16.27 16.27 0 0 0 .09-8.27c-1.42-5.26-5.45-7.58-10.36-7.84-8.42-.44-16.88-.29-25.32-.38-.03 0-.07.07-.15.07zm0-16.18c.39 0 .71.09 1 .09h19.13a34.5 34.5 0 0 0 5-.45 12.67 12.67 0 0 0 6-2.48c2.6-2.07 3.09-5 3.09-8.09 0-5.28-2.31-8.18-7.48-9.25a36.49 36.49 0 0 0-6.64-.84c-6.5-.12-13-.07-19.51-.09-.2 0-.4 0-.68.06zm132.05 25.99h-49.89a20.62 20.62 0 0 0 2.21 9.19c2.59 4.79 6.87 7 12.08 7.73a18.43 18.43 0 0 0 9.34-1 11.69 11.69 0 0 0 6.18-5.19 2.63 2.63 0 0 1 2.7-1.53c5 .08 10.05 0 15.08 0h1.56a19.15 19.15 0 0 1-4.13 9.45 29.42 29.42 0 0 1-16.18 11.44c-13.11 3.47-25.4 1.91-36.29-6.66-5.58-4.38-8.48-10.42-9.73-17.24-1.59-8.72-1.5-17.44 1.28-25.92a29.37 29.37 0 0 1 19.14-19.49 39.64 39.64 0 0 1 28.12.84 27.51 27.51 0 0 1 13 10.93 33.89 33.89 0 0 1 5.54 17.53c.1 3.21-.01 6.46-.01 9.92zm-18.58-11.94c-.21-8.25-5.63-14.34-15.22-14.54S105.94 43.6 105 51.87zm3.76-38.31h-38.55V4.09h38.55z" data-name="Layer 2"/>
</svg>
