<svg class="mail_logo" xmlns="http://www.w3.org/2000/svg" viewBox="0 0 96.8 96.8">
  <g data-name="Layer 2">
    <path d="M48.3 96.8A48.4 48.4 0 0 1 0 47.8C0 21.8 22 0 48.5 0a48.4 48.4 0 0 1 48.3 49c0 26.3-22 48-48.5 47.8zm.2-66.7H25.3c-1 0-1 .6-1 1.5v34.3c0 1 0 1 1 1h46.2c1 0 1 0 1-1V31.3c0-1 0-1.2-1-1.2h-23z"/>
    <path d="M30 33.6h37l-.7.7-16 16a2.3 2.3 0 0 1-3.7 0L30.4 34l-.4-.4z"/>
    <path d="M30 63.2l12.3-12.5 2 2.3a5.6 5.6 0 0 0 8.2 0l2.2-2.2 12 12.4zm-2.4-2.4V36.5L40 48.3zM57 48.4l12.2-11.8v24.2z"/>
  </g>
</svg>
