<svg class="dribbble_logo" xmlns="http://www.w3.org/2000/svg" viewBox="0 0 131.9 131.8">
  <path class="cls-1" d="M64.4 0h3c3 .3 5.7.4 8.5.8a64.4 64.4 0 0 1 31.2 14c14 11.6 22 26.5 24 44.7A61 61 0 0 1 127 91c-10.4 23.2-28 37-53.4 40.3a62.3 62.3 0 0 1-44-10.5C14 110.3 4.4 95.8 1 77.3c-.5-2.5-.7-5-1-7.5V62l.2-1.3c.4-2.8.6-5.6 1.2-8.3A64.8 64.8 0 0 1 23.2 16 64.2 64.2 0 0 1 57 .6l7.4-.7zM32 110l.4.3q25 18 54 7.4c1-.3 1-.7 1-1.6a237.6 237.6 0 0 0-8-29.6c-1-3.5-2.4-7-3.7-10.7C57.2 82.2 42 92.7 32 110zm39.6-44.4L68 58c-.5-1-1-1.2-2-1a184 184 0 0 1-24.5 5.3 211.8 211.8 0 0 1-30.2 2.3h-1a55.5 55.5 0 0 0 14 38.2C36 85.2 51 72 71.5 65.6zm-9.2-18a371.5 371.5 0 0 0-20.4-32c-16 8.4-26.2 21-30.5 38.6a211.2 211.2 0 0 0 51-6.7zm-9-35.6l3.3 4.5A310.8 310.8 0 0 1 73.3 43c.3.5.5 1 1.4.6a72.8 72.8 0 0 0 23-14c1.8-1.7 3.3-3.5 5-5.2C88.7 11.8 68.7 8 53.4 12zm68 53a54.4 54.4 0 0 0-12-33.6c-8.5 9.8-19 16.5-31 21.5L83 63c0 .2.8.3 1.2.3a118 118 0 0 1 26.8.3c3.5.3 7 .8 10.5 1.3zm-.5 10.3c-8.7-3-29.5-4.4-34-2.2a251 251 0 0 1 10.3 39c13-9.4 20.6-21.5 23.6-37z" data-name="Layer 4"/>
</svg>
