<svg class="enterLabel_logo" xmlns="http://www.w3.org/2000/svg" viewBox="0 0 164 100.41">
  <defs>
    <style>
      .cls-1{fill:#2d99f9;}
    </style>
  </defs>
  <g id="Layer_2" data-name="Layer 2">
    <g id="Layer_2-2" data-name="Layer 2">
      <path d="M114 29.75a9.91 9.91 0 0 0 2.84-2.4 4.84 4.84 0 0 0 1.16-3.07 5.88 5.88 0 0 0-.26-1.78 4 4 0 0 0-.78-1.43 3.6 3.6 0 0 0-1.31-1 4.63 4.63 0 0 0-1.86-.35 5.85 5.85 0 0 0-3.54 1.08 8.78 8.78 0 0 0-2.48 2.86 15.84 15.84 0 0 0-1.54 4.06 29 29 0 0 0-.72 4.65 30.53 30.53 0 0 0 4.58-1 18.21 18.21 0 0 0 3.91-1.62zm-86 0a9.91 9.91 0 0 0 2.84-2.4 4.84 4.84 0 0 0 1.08-3.08 5.88 5.88 0 0 0-.26-1.78 4 4 0 0 0-.78-1.43 3.6 3.6 0 0 0-1.31-1 4.63 4.63 0 0 0-1.86-.35 5.85 5.85 0 0 0-3.54 1.08 8.78 8.78 0 0 0-2.48 2.86 15.84 15.84 0 0 0-1.54 4.06 29 29 0 0 0-.72 4.65 30.53 30.53 0 0 0 4.58-1A18.21 18.21 0 0 0 28 29.75z"/>
      <path d="M0 0v58h47v6.91l35 35.5 36-35.5V58h46V0zm77.83 18.42a7.82 7.82 0 0 0 5.79-2.2 12.65 12.65 0 0 0 3.3-6.22h2.25l-1.07 8h9.41l-.17 2.41-9.47.25c-.17 1.66-.36 3.42-.56 5.19s-.38 3.54-.55 5.26-.3 3.4-.42 5-.17 3.06-.17 4.38c0 .58 0 1.18.07 1.78a6.26 6.26 0 0 0 .35 1.66 2.92 2.92 0 0 0 .82 1.23 2.26 2.26 0 0 0 1.53.48 5.6 5.6 0 0 0 1-.12 4.46 4.46 0 0 0 1.38-.52 7.29 7.29 0 0 0 1.54-1.25 11.86 11.86 0 0 0 1.65-2.25l1.53 1a20.57 20.57 0 0 1-1.78 2.67 11.11 11.11 0 0 1-1.93 1.92 7.52 7.52 0 0 1-2.21 1.17 8.27 8.27 0 0 1-2.6.39 6.77 6.77 0 0 1-2.92-.56 4.89 4.89 0 0 1-1.89-1.53 6.34 6.34 0 0 1-1-2.24 10.93 10.93 0 0 1-.32-2.66q0-1.68.1-3.94t.29-5q.19-2.69.48-5.71t.66-6.23l-5.25.06zm-45.66 28a12 12 0 0 1-7.09 2.18 11.81 11.81 0 0 1-4.88-.92 9.14 9.14 0 0 1-3.41-2.6 10.91 10.91 0 0 1-2-4 19.69 19.69 0 0 1-.65-5.24 26.29 26.29 0 0 1 .39-4.52 21.56 21.56 0 0 1 1.18-4.24 18.59 18.59 0 0 1 2-3.72 13.16 13.16 0 0 1 2.79-3 12.78 12.78 0 0 1 3.61-1.95 13.25 13.25 0 0 1 4.43-.71 12.89 12.89 0 0 1 3 .36 7.91 7.91 0 0 1 2.64 1.15 6 6 0 0 1 1.86 2.09 6.64 6.64 0 0 1 .71 3.2 5.69 5.69 0 0 1-.78 3 8.5 8.5 0 0 1-2.11 2.35 14.62 14.62 0 0 1-3.08 1.82 30.25 30.25 0 0 1-3.68 1.36 35.86 35.86 0 0 1-3.94.94q-2 .36-3.85.56 0 5.56 1.65 8.32a5.49 5.49 0 0 0 5.11 2.76 8.48 8.48 0 0 0 2.6-.42 9.84 9.84 0 0 0 2.55-1.28 12.75 12.75 0 0 0 2.41-2.2 16.94 16.94 0 0 0 2.14-3.21l1.93 1.1a19.32 19.32 0 0 1-5.53 6.87zm24.64-21.81a28 28 0 0 0-2.42 4.32 42.6 42.6 0 0 0-2 5.15 44.56 44.56 0 0 0-1.33 5.49 30.43 30.43 0 0 0-.49 5.27v1.65s0 .51.09 1.51h-5a5.12 5.12 0 0 1-.06-.87c0-.54 0-1.11.06-1.71s.1-1.35.19-2.27.21-2 .36-3.39.35-3.06.58-5.13q.26-2.31.45-3.92t.3-2.71q.11-1.1.2-1.79t.21-1.21v-1.63a8.72 8.72 0 0 0-.06-1 2.71 2.71 0 0 0-.23-.85 1.48 1.48 0 0 0-.48-.58 1.39 1.39 0 0 0-.82-.22 2.25 2.25 0 0 0-1.05.3 4.3 4.3 0 0 0-1.16 1 8.4 8.4 0 0 0-1.14 1.77 14.69 14.69 0 0 0-1 2.64l-1.65-.35a14.49 14.49 0 0 1 .77-2.47 12.42 12.42 0 0 1 1.52-2.74 9.17 9.17 0 0 1 2.35-2.2 5.41 5.41 0 0 1 3.1-.91 4.24 4.24 0 0 1 2.17.51 3.67 3.67 0 0 1 1.36 1.36 6.08 6.08 0 0 1 .69 2 13.14 13.14 0 0 1 .2 2.35q0 1-.1 2t-.23 2c-.09.63-.19 1.12-.3 1.7a8.61 8.61 0 0 1-.28 1.32h.17c1-2 2-4.79 3-6.54a19.94 19.94 0 0 1 2.93-4.07 8.67 8.67 0 0 1 2.89-2.08 7.44 7.44 0 0 1 2.87-.58 6.65 6.65 0 0 1 3 .63 5.33 5.33 0 0 1 2 1.68 7.15 7.15 0 0 1 1.1 2.46 12.14 12.14 0 0 1 .35 2.93 47.4 47.4 0 0 1-.27 5Q69.34 33 69 35.38l-.6 4.32a24.13 24.13 0 0 0-.27 3.23v1.05a2.64 2.64 0 0 0 .22.88 1.5 1.5 0 0 0 .49.61 1.39 1.39 0 0 0 .84.23 2.28 2.28 0 0 0 1-.3 4 4 0 0 0 1.16-1A8.89 8.89 0 0 0 73 42.64 14.77 14.77 0 0 0 74 40l1.67.38a14.52 14.52 0 0 1-.76 2.47 12.12 12.12 0 0 1-1.52 2.73 9.29 9.29 0 0 1-2.29 2.21 5.4 5.4 0 0 1-3.1.91 6.27 6.27 0 0 1-2.34-.37 3.38 3.38 0 0 1-1.47-1.11 4.45 4.45 0 0 1-.76-1.79 12.21 12.21 0 0 1-.22-2.44 31.25 31.25 0 0 1 .29-3.9q.29-2.25.62-4.78t.62-5.14a45.45 45.45 0 0 0 .29-5 6.26 6.26 0 0 0-.11-1.17 3.86 3.86 0 0 0-.42-1.17 2.74 2.74 0 0 0-.84-.92 2.39 2.39 0 0 0-1.4-.38 4.46 4.46 0 0 0-2.76 1.11 14 14 0 0 0-2.69 2.97zm48.31 45l-21.7 22-21.6-22a2.06 2.06 0 1 1 2.94-2.88l18.67 19 18.77-19a2.06 2.06 0 0 1 2.93 2.89zm13.11-23.19a12 12 0 0 1-7.09 2.18 11.81 11.81 0 0 1-4.88-.92 9.14 9.14 0 0 1-3.41-2.6 10.91 10.91 0 0 1-2-4 19.69 19.69 0 0 1-.65-5.24 26.29 26.29 0 0 1 .39-4.52 21.56 21.56 0 0 1 1.18-4.24 18.59 18.59 0 0 1 2-3.72 13.16 13.16 0 0 1 2.79-3 12.78 12.78 0 0 1 3.61-1.95 13.25 13.25 0 0 1 4.43-.71 12.89 12.89 0 0 1 3 .36 7.91 7.91 0 0 1 2.64 1.15 6 6 0 0 1 1.86 2.09 6.64 6.64 0 0 1 .71 3.2 5.69 5.69 0 0 1-.78 3 8.5 8.5 0 0 1-2.11 2.35 14.62 14.62 0 0 1-3.08 1.82 30.25 30.25 0 0 1-3.68 1.36 35.86 35.86 0 0 1-3.94.94q-2 .36-3.85.56 0 5.56 1.65 8.32a5.49 5.49 0 0 0 5.11 2.76 8.48 8.48 0 0 0 2.6-.42 9.84 9.84 0 0 0 2.55-1.28 12.75 12.75 0 0 0 2.41-2.2 16.94 16.94 0 0 0 2.14-3.21l1.93 1.1a19.32 19.32 0 0 1-5.53 6.87zm34.7-24.24a2.76 2.76 0 0 1-.53.91 2.7 2.7 0 0 1-.85.64 2.58 2.58 0 0 1-1.14.25 2.8 2.8 0 0 1-1.85-.62 2.12 2.12 0 0 1-.89-1.59c-.12 0-.23.19-.33.19H147a3.52 3.52 0 0 0-2.58.9A12.53 12.53 0 0 0 142 25.8a27 27 0 0 0-2 4.3 44.81 44.81 0 0 0-1.63 5.09 51.37 51.37 0 0 0-1 5.31 33.64 33.64 0 0 0-.32 4.93v.75c0 .21-.06.41-.05.59s0 .37 0 .56v.66h-4.91a5.12 5.12 0 0 1-.06-.87V45.4s0-1.41.1-2.35.15-2.11.27-3.5.3-3.13.53-5.21q.26-2.31.43-3.89t.3-2.65q.13-1.07.22-1.72c.06-.43.1-.8.13-1.1s0-.56.06-.79 0-.5 0-.81a7.81 7.81 0 0 0-.06-1 2.8 2.8 0 0 0-.23-.84 1.42 1.42 0 0 0-.49-.59 1.46 1.46 0 0 0-.84-.22 2.25 2.25 0 0 0-1.05.3 4.3 4.3 0 0 0-1.16 1 8.4 8.4 0 0 0-1.14 1.77 14.69 14.69 0 0 0-1 2.64l-1.65-.35a14.49 14.49 0 0 1 .77-2.47 12.42 12.42 0 0 1 1.52-2.74 9.17 9.17 0 0 1 2.29-2.22 5.41 5.41 0 0 1 3.1-.91 4.69 4.69 0 0 1 2 .4 3.34 3.34 0 0 1 1.34 1.15 5 5 0 0 1 .72 1.82 11.93 11.93 0 0 1 .22 2.37 29.11 29.11 0 0 1-.23 3.5c-.15 1.2-.37 2-.63 4h.17a30 30 0 0 1 2.66-6.51 19.18 19.18 0 0 1 2.76-4 8.47 8.47 0 0 1 2.84-2.08 7.75 7.75 0 0 1 2.89-.6 5.28 5.28 0 0 1 1.65.24 4.16 4.16 0 0 1 1.31.69 3.18 3.18 0 0 1 .88 1.08 3.11 3.11 0 0 1 .32 1.41 3 3 0 0 1-.1 1.01z"/>
    </g>
  </g>
</svg>
