<svg class="insta_logo" xmlns="http://www.w3.org/2000/svg" viewBox="0 0 109.9 109.9">
  <g data-name="Layer 4">
    <path d="M0 77V33l.5-3.8c1-14.2 10-25 23.6-28L33 0h44l3.8.5c14 .8 24.4 9.4 27.7 23 .7 3.4 1 6.7 1.5 10v42.3c-.2 1.7-.5 3.3-.6 5-.8 13.8-9.4 24.3-23 27.6-3.4.8-7 1-10.5 1.5H33c-1.4-1-2.8-1-4.3-1-14-1-25-10-28-24L0 77zm54.6 22.5c8.2 0 16.3.2 24.5 0 6-.2 12-2 16-7a21 21 0 0 0 5-13.5c0-15.7.3-31.5 0-47.2-.3-13.2-8-20.8-21-21.2-14-.6-27.2-.6-41-.6a61 61 0 0 0-12 1.2c-9.3 2-15 9-15.3 19.5-.3 16-.4 32 0 48 .3 13 8 20.4 20.8 20.8 7.8.3 15.6 0 23.3 0z"/>
    <path d="M26.8 54.8a28.2 28.2 0 1 1 28 28.3A28 28 0 0 1 27 55zm28 18.4a18.2 18.2 0 1 0-18-18.4 18 18 0 0 0 18 18.4zm36-47.7a6.6 6.6 0 0 1-6.4 6.8 6.8 6.8 0 0 1-6.8-6.6 6.6 6.6 0 0 1 6.6-6.6 6.4 6.4 0 0 1 6.6 7z"/>
  </g>
</svg>
