<svg class="my_logo" data-name="Layer 1" xmlns="http://www.w3.org/2000/svg" viewBox="0 0 87.43 80.31" >
  <g>
    <path d="M53.34,55.29,46.19,44.69,35.27,28.5V63.13l4.12,6.11,3.63.05,3.63-.05L60.6,55.29C59.71,55.28,54.28,55.31,53.34,55.29Z" transform="translate(-6.28 -9.84)"/>
    <polygon points="66.3 0 52.35 13.95 47.87 21.47 50.69 26.2 66.3 0"/>
    <polygon points="13.95 0 0 13.95 0 80.31 15.05 80.31 28.99 66.36 13.95 66.36 13.95 0"/>
    <polygon points="72.39 18.66 58.44 39.34 58.44 80.31 73.49 80.31 87.44 66.36 72.39 66.36 72.39 18.66"/>
  </g>
</svg>
