<svg class="mail_logo" xmlns="http://www.w3.org/2000/svg" viewBox="0 0 229.5 164.05">
  <path class="cls-1" d="M0 142.26V21.8a8.37 8.37 0 0 0 .35-1.07c1.77-9.66 7.36-16.1 16.5-19.46A47.83 47.83 0 0 1 21.8 0H208c4.48.88 8.75 2.3 12.3 5.28 5.56 4.65 9.13 10.34 9.12 17.88v88.52c0 9.56.13 19.12-.06 28.68a24.4 24.4 0 0 1-24.2 23.64q-90.42 0-180.85-.13a22.94 22.94 0 0 1-20.8-12c-1.6-2.87-2.3-6.4-3.5-9.6zM24.4 13c.54.6.82.93 1.12 1.23l86 86c2.67 2.67 4.66 2.64 7.37-.07l85.6-85.76c.33-.37.64-.8 1.13-1.37zm114.24 84.9l-19.46 19.4c-3.08 3.07-4.94 3.06-8-.06L92.4 98.4c-.47-.48-1-.93-1.46-1.4l.42.7-54.07 53.9h155.1zm8.76-8.76c.68.55 1.27.95 1.76 1.44l58.15 58.33c2.5 2.5 3.5 2.6 6 .2a11.26 11.26 0 0 0 2.9-4.3 21.1 21.1 0 0 0 1-6.52q.1-58.57 0-117.15a12.27 12.27 0 0 0-.12-1.33zm-65.3-.38L13.72 20.6v119.75a11.8 11.8 0 0 0 .45 4.34 18.8 18.8 0 0 0 3.12 5c1.1 1.3 2.3 1.22 3.8-.2q29.7-29.9 59.5-59.7a11.27 11.27 0 0 1 1.4-1.1z" data-name="Layer 4"/>
</svg>
