<svg class="phone_logo" xmlns="http://www.w3.org/2000/svg" viewBox="0 0 857.1 857.1">
  <path class="cls-1" d="M714.2 594.3q0-6.2-1-9-1.8-4.4-21.6-16.4t-49.3-28l-29.6-16-10.7-8a86 86 0 0 0-14-8.4 28.3 28.3 0 0 0-11-2.8q-10 0-26 18t-32 37q-16 19-25 19a27.3 27.3 0 0 1-9.2-2 87.5 87.5 0 0 1-8.7-3.7q-3-1-9-5t-8-4.3q-55-31-95-71t-71-95q-1-2-5-8t-5-9.8a87.5 87.5 0 0 1-3.3-8.7 27.3 27.3 0 0 1-2-9.6q0-7 11.5-18.6a217.7 217.7 0 0 1 25-21.6 190.2 190.2 0 0 0 25.3-22q11.8-12 11.8-20.3a28.3 28.3 0 0 0-3-11.4 86 86 0 0 0-8.3-14q-5.6-8-7.3-11-1.6-3.3-8.3-16t-14-25l-15-26a227.2 227.2 0 0 0-13.6-23q-6.4-9-9.2-10t-9-1q-26.7 0-56.3 12.2Q180 167 162 208t-19 72.7a138.2 138.2 0 0 0 1 19q1 10 3 17a183.2 183.2 0 0 0 5 18.4q4 12 6 17t7 19l6 16.7q33 91.6 120.2 179t179 120.7q3.2 1 16.6 6t18.6 7q5 2 16.5 5.7a183.2 183.2 0 0 0 18.4 5q7 1.5 17 3a138.2 138.2 0 0 0 19 1.3q31.8 0 72.8-19t52.5-45Q714 621.8 714 595zm143-433.6v535.7q0 66.4-47.3 113.5t-114 47H160q-66 0-113.4-47T0 696V160.7Q0 94.3 47 47.2T160.8 0h535.7Q762.8 0 810 47t47 113.7z" data-name="Layer 1"/>
</svg>
